<?xml version="1.0" encoding="utf-8"?>
<!-- Generator: Adobe Illustrator 19.1.0, SVG Export Plug-In . SVG Version: 6.00 Build 0)  -->
<svg version="1.1" id="Layer_1" xmlns="http://www.w3.org/2000/svg" xmlns:xlink="http://www.w3.org/1999/xlink" x="0px" y="0px"
	 viewBox="0 0 557.4 200" style="enable-background:new 0 0 557.4 200;" xml:space="preserve">
<style type="text/css">
	.st0{opacity:0.3;fill:#00AAE7;stroke:#000000;stroke-miterlimit:10;}
	.st1{fill:#FFFFFF;}
	.st2{fill:#DCE11F;}
	.st3{fill:#FFFFFF;stroke:#DCE125;stroke-width:3;stroke-miterlimit:10;}
</style>
<rect class="st0" width="557.4" height="200"/>
<g>
	<g id="Layer_1_2_">
	</g>
	<g id="overcast_1_">
	</g>
	<g id="sun_1_">
		<g>
			<path class="st1" d="M83.9,97.1c0-23.3,18.8-42.3,42-42.3s42,18.9,42,42.3s-16.2,42.3-39.4,42.3S83.9,120.5,83.9,97.1z"/>
			<path class="st2" d="M125.9,148.4c-28.3,0-51.1-22.7-51.2-51.2C74.6,68.7,97.8,45.9,126,45.9c28.4,0,51.2,23,51.1,51.8
				C177.1,125.5,154,148.4,125.9,148.4z M84.3,97c-0.1,22.6,18,41.6,41.4,41.7c23.1,0.1,41.7-18.3,41.7-41.5
				c0-23.4-18.7-41.4-40.8-41.6C103.1,55.4,84.3,74,84.3,97z"/>
			<path class="st3" d="M123,166.6c0-2.3,0-4.6,0-6.8c0-3.1,2-5.2,4.8-5.2c2.8,0,4.9,2,4.9,5.1c0.1,4.7,0.1,9.3,0,13.9
				c0,3-2.2,5.2-4.9,5.1c-2.8,0-4.8-2.2-4.8-5.3C123,171.1,123,168.9,123,166.6z"/>
			<path class="st3" d="M123,28.5c0-2.3,0-4.6,0-6.8c0-3,2.1-5.2,4.8-5.2c2.6,0,4.8,2.1,4.9,5c0.1,4.7,0.1,9.5,0,14.2
				c-0.1,3.1-2.2,5-5.1,4.9c-2.7-0.1-4.6-2.1-4.6-5.2C123,33.1,123,30.8,123,28.5z"/>
			<path class="st3" d="M173.8,45.8c1.5-1.7,3.1-3.4,4.6-5c2-2.2,5-2.4,7.1-0.6c2,1.8,2.1,4.8,0.2,7c-3.2,3.5-6.3,7.1-9.6,10.5
				c-2.1,2.2-5,2.2-7,0.2c-2-1.9-2-4.7,0.1-6.9C170.6,49.2,172.2,47.5,173.8,45.8z"/>
			<path class="st3" d="M86.9,53c0,2.2-0.8,3.7-2.3,4.6c-1.6,1-3.3,0.9-4.9,0c-0.4-0.2-0.8-0.6-1.1-0.9c-3.3-3.3-6.6-6.5-9.9-9.9
				c-2.9-3-1.7-7.4,2.1-8.3c1.7-0.4,3.2,0,4.4,1.2c3.5,3.4,7,6.9,10.4,10.4C86.4,51.1,86.9,52.1,86.9,53z"/>
			<path class="st3" d="M184.5,151.1c0,3.6-3.7,5.9-7,4.2c-0.5-0.3-1-0.6-1.4-1c-3.4-3.3-6.7-6.6-10-10c-1.8-1.9-2-4.4-0.7-6.4
				c1.2-1.8,3.7-2.5,5.8-1.7c0.7,0.3,1.3,0.7,1.8,1.3c3.3,3.3,6.6,6.6,9.9,9.9C183.9,148.5,184.5,149.7,184.5,151.1z"/>
			<path class="st3" d="M86.9,140.8c0,1.3-0.4,2.5-1.4,3.4c-3.5,3.5-6.9,7-10.4,10.4c-1.8,1.8-4.6,1.8-6.4,0.1
				c-1.9-1.7-2.4-4.7-0.6-6.5c3.6-3.8,7.4-7.6,11.2-11.2c1.4-1.3,3.3-1.4,5-0.5C85.9,137.4,86.8,138.9,86.9,140.8z"/>
			<path class="st3" d="M55.5,103.6c-2.3,0-4.7,0-7,0c-2.9,0-5-2-5.1-4.7c-0.1-2.6,1.9-4.8,4.7-4.8c4.9-0.1,9.8-0.1,14.7,0
				c2.9,0.1,4.7,2.2,4.7,5.1c-0.1,2.6-2.1,4.5-4.9,4.5C60.2,103.7,57.8,103.6,55.5,103.6z"/>
			<path class="st3" d="M193.6,103.6c-2.4,0-4.7,0-7.1,0c-2.9,0-4.9-2-4.9-4.7c-0.1-2.8,1.8-4.8,4.7-4.9c4.9-0.1,9.9-0.1,14.9,0
				c2.7,0.1,4.7,2.2,4.6,4.8c-0.1,2.6-2.2,4.7-4.9,4.7C198.3,103.7,195.9,103.6,193.6,103.6z"/>
			<path class="st2" d="M119.9,64.5c0.4,0,1.1-0.1,1.8,0c1.3,0.2,2,0.9,2,2.2c0,1.3-0.6,2.1-1.8,2.4c-1.5,0.4-3,0.2-4.6,0.5
				c-6.6,1.3-11.6,4.7-15.4,10.2c-0.2,0.3-0.3,0.6-0.5,0.8c-0.9,1.2-2.2,1.5-3.3,0.8c-1.2-0.7-1.5-2.1-0.7-3.4
				c2.6-4.3,6.1-7.6,10.5-10.1C111.5,65.9,115.4,64.8,119.9,64.5z"/>
		</g>
	</g>
	<g id="rainy_cloud_1_">
	</g>
</g>
<g>
	<g id="Layer_1_3_">
		<g>
			<g>
				<path class="st1" d="M310.8,91.3c-4.7,0-9.5,0-14.2,0c-3.4,0-6.3-1.3-8.6-4.1c-2.4-2.9-3.5-6.3-3.1-10.3
					c0.5-5.4,3.8-9.6,8.4-11.1c1.3-0.4,2.6-0.6,3.9-0.4c0.3,0,0.4-0.1,0.6-0.3c2.5-3.8,5.9-6,10.1-6.6c7-1,13.7,3.8,15.8,11.5
					c0.1,0.5,0.3,0.6,0.8,0.6c4.9-0.5,9.3,3.5,9.9,9c0.7,6.2-3.6,11.7-9.2,11.7C320.4,91.3,315.6,91.3,310.8,91.3z"/>
			</g>
			<g>
				<path d="M310.8,91.3c-4.7,0-9.5,0-14.2,0c-3.4,0-6.3-1.3-8.6-4.1c-2.4-2.9-3.5-6.3-3.1-10.3c0.5-5.4,3.8-9.6,8.4-11.1
					c1.3-0.4,2.6-0.6,3.9-0.4c0.3,0,0.4-0.1,0.6-0.3c2.5-3.8,5.9-6,10.1-6.6c7-1,13.7,3.8,15.8,11.5c0.1,0.5,0.3,0.6,0.8,0.6
					c4.9-0.5,9.3,3.5,9.9,9c0.7,6.2-3.6,11.7-9.2,11.7C320.4,91.3,315.6,91.3,310.8,91.3z M310.7,89.7c4.6,0,9.2,0,13.8,0
					c0.5,0,1,0,1.4-0.1c4.5-0.5,7.8-5.4,6.8-10.3c-0.9-4.8-4.7-7.7-9.1-6.9c-0.8,0.2-1,0-1.3-1c-1.8-8.2-9.2-13.1-16.5-10.8
					c-3.1,1-5.5,2.9-7.3,5.9c-0.3,0.5-0.6,0.7-1.2,0.6c-1.2-0.2-2.4-0.1-3.6,0.2c-5,1.4-8.2,6.8-7.6,12.3c0.3,2.6,1.2,4.9,2.9,6.7
					c2.1,2.3,4.6,3.4,7.5,3.3C301.4,89.7,306.1,89.7,310.7,89.7z"/>
				<path d="M320.6,70.6c-0.1,0.2-0.3,0.5-0.5,0.6c-0.3,0.2-0.6,0.1-0.9-0.3c-0.1-0.2-0.2-0.4-0.3-0.6c-1.4-3.3-3.6-5.5-6.8-6.4
					c-0.8-0.2-1-0.6-0.9-1.1c0.1-0.6,0.5-0.7,1.3-0.5c3.7,1.2,6.4,3.7,7.9,7.7C320.4,70.2,320.5,70.4,320.6,70.6z"/>
				<path d="M289.4,72.5c1-2,2.4-3.3,4.5-3.7c0.3,0,0.6,0,0.8,0.1c0.2,0.2,0.3,0.6,0.2,0.8c-0.1,0.2-0.4,0.5-0.6,0.6
					c-0.7,0.3-1.4,0.5-2,0.9c-0.8,0.5-1.3,1.3-1.7,2.1c-0.3,0.6-0.9,0.7-1.2,0.3C289.1,73.3,289.2,72.9,289.4,72.5z"/>
			</g>
		</g>
	</g>
	<g id="overcast_2_">
	</g>
	<g id="sun_2_">
	</g>
	<g id="rainy_cloud_2_">
	</g>
</g>
<g>
	<g id="Layer_1_1_">
		<g>
			<g>
				<path class="st1" d="M258.9,62.9c-7.7,0-15.4,0-23.1,0c-5.5,0-10.3-2-14-6c-3.9-4.2-5.6-9.2-5-14.9c0.9-7.8,6.2-14,13.7-16.1
					c2.1-0.6,4.2-0.9,6.3-0.6c0.5,0,0.7-0.1,1-0.5c4.1-5.5,9.6-8.8,16.4-9.6c11.4-1.4,22.3,5.5,25.7,16.8c0.2,0.7,0.5,0.9,1.3,0.8
					c8-0.7,15.1,5.1,16.1,13.1c1.1,9.1-5.9,17-15,17C274.5,62.9,266.7,62.9,258.9,62.9z"/>
			</g>
			<g>
				<path d="M258.9,62.9c-7.7,0-15.4,0-23.1,0c-5.5,0-10.3-2-14-6c-3.9-4.2-5.6-9.2-5-14.9c0.9-7.8,6.2-14,13.7-16.1
					c2.1-0.6,4.2-0.9,6.3-0.6c0.5,0,0.7-0.1,1-0.5c4.1-5.5,9.6-8.8,16.4-9.6c11.4-1.4,22.3,5.5,25.7,16.8c0.2,0.7,0.5,0.9,1.3,0.8
					c8-0.7,15.1,5.1,16.1,13.1c1.1,9.1-5.9,17-15,17C274.5,62.9,266.7,62.9,258.9,62.9z M258.8,60.6c7.5,0,15,0,22.5,0
					c0.8,0,1.6,0,2.4-0.1c7.3-0.7,12.6-7.9,11.1-15c-1.5-7-7.7-11.2-14.8-10.1c-1.4,0.2-1.7,0-2-1.4c-2.9-11.9-15-19-26.8-15.7
					c-5,1.4-9,4.3-11.9,8.5c-0.5,0.7-1,1-1.9,0.9c-2-0.3-3.9-0.1-5.8,0.4c-8.1,2-13.4,9.9-12.4,17.9c0.5,3.8,2,7.1,4.7,9.8
					c3.4,3.4,7.5,4.9,12.2,4.9C243.7,60.5,251.3,60.6,258.8,60.6z"/>
				<path d="M274.8,32.8c-0.2,0.3-0.5,0.7-0.8,0.9c-0.5,0.3-1.1,0.1-1.4-0.4c-0.2-0.3-0.3-0.6-0.4-0.9c-2.2-4.8-5.9-8-11-9.4
					c-1.2-0.3-1.7-0.8-1.5-1.6c0.2-0.8,0.8-1.1,2.1-0.7c6.1,1.7,10.3,5.4,12.8,11.3C274.6,32.2,274.7,32.4,274.8,32.8z"/>
				<path d="M224.1,35.5c1.6-2.9,4-4.8,7.3-5.4c0.4-0.1,1,0,1.3,0.2c0.3,0.2,0.5,0.9,0.4,1.2c-0.1,0.4-0.6,0.7-1,0.8
					c-1.1,0.5-2.2,0.7-3.3,1.3c-1.3,0.7-2.1,1.8-2.7,3.1c-0.5,0.9-1.4,1.1-2,0.4C223.7,36.7,223.8,36.1,224.1,35.5z"/>
			</g>
		</g>
	</g>
	<g id="overcast_3_">
	</g>
	<g id="sun_3_">
	</g>
	<g id="rainy_cloud_3_">
	</g>
</g>
<g>
	<g id="Layer_1_4_">
		<g>
			<g>
				<path class="st1" d="M311.9,20.5c-2.9,0-5.7,0-8.6,0c-2.1,0-3.8-0.8-5.2-2.4c-1.5-1.7-2.1-3.7-1.9-6c0.3-3.2,2.3-5.7,5.1-6.5
					c0.8-0.2,1.5-0.3,2.3-0.2c0.2,0,0.3,0,0.4-0.2c1.5-2.2,3.6-3.5,6.1-3.9c4.3-0.6,8.3,2.2,9.6,6.8c0.1,0.3,0.2,0.4,0.5,0.3
					c3-0.3,5.6,2.1,6,5.3c0.4,3.7-2.2,6.8-5.6,6.9C317.7,20.5,314.8,20.5,311.9,20.5z"/>
			</g>
			<g>
				<path d="M311.9,20.5c-2.9,0-5.7,0-8.6,0c-2.1,0-3.8-0.8-5.2-2.4c-1.5-1.7-2.1-3.7-1.9-6c0.3-3.2,2.3-5.7,5.1-6.5
					c0.8-0.2,1.5-0.3,2.3-0.2c0.2,0,0.3,0,0.4-0.2c1.5-2.2,3.6-3.5,6.1-3.9c4.3-0.6,8.3,2.2,9.6,6.8c0.1,0.3,0.2,0.4,0.5,0.3
					c3-0.3,5.6,2.1,6,5.3c0.4,3.7-2.2,6.8-5.6,6.9C317.7,20.5,314.8,20.5,311.9,20.5z M311.9,19.6c2.8,0,5.6,0,8.4,0
					c0.3,0,0.6,0,0.9,0c2.7-0.3,4.7-3.2,4.1-6.1c-0.5-2.8-2.9-4.5-5.5-4.1c-0.5,0.1-0.6,0-0.8-0.6c-1.1-4.8-5.6-7.7-10-6.3
					c-1.8,0.6-3.3,1.7-4.4,3.4c-0.2,0.3-0.4,0.4-0.7,0.4c-0.7-0.1-1.5-0.1-2.2,0.1c-3,0.8-5,4-4.6,7.2c0.2,1.5,0.8,2.9,1.8,4
					c1.3,1.4,2.8,2,4.6,2C306.3,19.6,309.1,19.6,311.9,19.6z"/>
				<path d="M317.8,8.4c-0.1,0.1-0.2,0.3-0.3,0.4c-0.2,0.1-0.4,0-0.5-0.2c-0.1-0.1-0.1-0.2-0.2-0.4c-0.8-1.9-2.2-3.2-4.1-3.8
					c-0.5-0.1-0.6-0.3-0.5-0.7c0.1-0.3,0.3-0.4,0.8-0.3c2.3,0.7,3.9,2.2,4.8,4.5C317.8,8.1,317.8,8.2,317.8,8.4z"/>
				<path d="M299,9.5c0.6-1.2,1.5-1.9,2.7-2.2c0.2,0,0.4,0,0.5,0.1c0.1,0.1,0.2,0.4,0.1,0.5c0,0.1-0.2,0.3-0.4,0.3
					c-0.4,0.2-0.8,0.3-1.2,0.5c-0.5,0.3-0.8,0.7-1,1.2c-0.2,0.4-0.5,0.4-0.7,0.2C298.8,10,298.9,9.7,299,9.5z"/>
			</g>
		</g>
	</g>
	<g id="overcast_4_">
	</g>
	<g id="sun_4_">
	</g>
	<g id="rainy_cloud_4_">
	</g>
</g>
<g>
	<g id="Layer_1_5_">
		<g>
			<g>
				<path class="st1" d="M434.9,179.9c-7.7,0-15.4,0-23.1,0c-5.5,0-10.3-2-14-6c-3.9-4.2-5.6-9.2-5-14.9c0.9-7.8,6.2-14,13.7-16.1
					c2.1-0.6,4.2-0.9,6.3-0.6c0.5,0,0.7-0.1,1-0.5c4.1-5.5,9.6-8.8,16.4-9.6c11.4-1.4,22.3,5.5,25.7,16.8c0.2,0.7,0.5,0.9,1.3,0.8
					c8-0.7,15.1,5.1,16.1,13.1c1.1,9.1-5.9,17-15,17C450.4,179.9,442.7,179.9,434.9,179.9z"/>
			</g>
			<g>
				<path d="M434.9,179.9c-7.7,0-15.4,0-23.1,0c-5.5,0-10.3-2-14-6c-3.9-4.2-5.6-9.2-5-14.9c0.9-7.8,6.2-14,13.7-16.1
					c2.1-0.6,4.2-0.9,6.3-0.6c0.5,0,0.7-0.1,1-0.5c4.1-5.5,9.6-8.8,16.4-9.6c11.4-1.4,22.3,5.5,25.7,16.8c0.2,0.7,0.5,0.9,1.3,0.8
					c8-0.7,15.1,5.1,16.1,13.1c1.1,9.1-5.9,17-15,17C450.4,179.9,442.7,179.9,434.9,179.9z M434.8,177.5c7.5,0,15,0,22.5,0
					c0.8,0,1.6,0,2.4-0.1c7.3-0.7,12.6-7.9,11.1-15c-1.5-7-7.7-11.2-14.8-10.1c-1.4,0.2-1.7,0-2-1.4c-2.9-11.9-15-19-26.8-15.7
					c-5,1.4-9,4.3-11.9,8.5c-0.5,0.7-1,1-1.9,0.9c-2-0.3-3.9-0.1-5.8,0.4c-8.1,2-13.4,9.9-12.4,17.9c0.5,3.8,2,7.1,4.7,9.8
					c3.4,3.4,7.5,4.9,12.2,4.9C419.7,177.5,427.2,177.5,434.8,177.5z"/>
				<path d="M450.8,149.8c-0.2,0.3-0.5,0.7-0.8,0.9c-0.5,0.3-1.1,0.1-1.4-0.4c-0.2-0.3-0.3-0.6-0.4-0.9c-2.2-4.8-5.9-8-11-9.4
					c-1.2-0.3-1.7-0.8-1.5-1.6c0.2-0.8,0.8-1.1,2.1-0.7c6.1,1.7,10.3,5.4,12.8,11.3C450.6,149.1,450.6,149.4,450.8,149.8z"/>
				<path d="M400.1,152.5c1.6-2.9,4-4.8,7.3-5.4c0.4-0.1,1,0,1.3,0.2c0.3,0.2,0.5,0.9,0.4,1.2c-0.1,0.4-0.6,0.7-1,0.8
					c-1.1,0.5-2.2,0.7-3.3,1.3c-1.3,0.7-2.1,1.8-2.7,3.1c-0.5,0.9-1.4,1.1-2,0.4C399.7,153.7,399.8,153.1,400.1,152.5z"/>
			</g>
		</g>
	</g>
	<g id="overcast_5_">
	</g>
	<g id="sun_5_">
	</g>
	<g id="rainy_cloud_5_">
	</g>
</g>
<g>
	<g id="Layer_1_6_">
		<g>
			<g>
				<path class="st1" d="M513.7,98.8c-7.7,0-15.4,0-23.1,0c-5.5,0-10.3-2-14-6c-3.9-4.2-5.6-9.2-5-14.9c0.9-7.8,6.2-14,13.7-16.1
					c2.1-0.6,4.2-0.9,6.3-0.6c0.5,0,0.7-0.1,1-0.5c4.1-5.5,9.6-8.8,16.4-9.6c11.4-1.4,22.3,5.5,25.7,16.8c0.2,0.7,0.5,0.9,1.3,0.8
					c8-0.7,15.1,5.1,16.1,13.1c1.1,9.1-5.9,17-15,17C529.3,98.8,521.5,98.8,513.7,98.8z"/>
			</g>
			<g>
				<path d="M513.7,98.8c-7.7,0-15.4,0-23.1,0c-5.5,0-10.3-2-14-6c-3.9-4.2-5.6-9.2-5-14.9c0.9-7.8,6.2-14,13.7-16.1
					c2.1-0.6,4.2-0.9,6.3-0.6c0.5,0,0.7-0.1,1-0.5c4.1-5.5,9.6-8.8,16.4-9.6c11.4-1.4,22.3,5.5,25.7,16.8c0.2,0.7,0.5,0.9,1.3,0.8
					c8-0.7,15.1,5.1,16.1,13.1c1.1,9.1-5.9,17-15,17C529.3,98.8,521.5,98.8,513.7,98.8z M513.6,96.4c7.5,0,15,0,22.5,0
					c0.8,0,1.6,0,2.4-0.1c7.3-0.7,12.6-7.9,11.1-15c-1.5-7-7.7-11.2-14.8-10.1c-1.4,0.2-1.7,0-2-1.4c-2.9-11.9-15-19-26.8-15.7
					c-5,1.4-9,4.3-11.9,8.5c-0.5,0.7-1,1-1.9,0.9c-2-0.3-3.9-0.1-5.8,0.4c-8.1,2-13.4,9.9-12.4,17.9c0.5,3.8,2,7.1,4.7,9.8
					c3.4,3.4,7.5,4.9,12.2,4.9C498.5,96.4,506.1,96.4,513.6,96.4z"/>
				<path d="M529.6,68.7c-0.2,0.3-0.5,0.7-0.8,0.9c-0.5,0.3-1.1,0.1-1.4-0.4c-0.2-0.3-0.3-0.6-0.4-0.9c-2.2-4.8-5.9-8-11-9.4
					c-1.2-0.3-1.7-0.8-1.5-1.6c0.2-0.8,0.8-1.1,2.1-0.7c6.1,1.7,10.3,5.4,12.8,11.3C529.4,68.1,529.5,68.3,529.6,68.7z"/>
				<path d="M478.9,71.4c1.6-2.9,4-4.8,7.3-5.4c0.4-0.1,1,0,1.3,0.2c0.3,0.2,0.5,0.9,0.4,1.2c-0.1,0.4-0.6,0.7-1,0.8
					c-1.1,0.5-2.2,0.7-3.3,1.3c-1.3,0.7-2.1,1.8-2.7,3.1c-0.5,0.9-1.4,1.1-2,0.4C478.5,72.6,478.6,72,478.9,71.4z"/>
			</g>
		</g>
	</g>
	<g id="overcast_6_">
	</g>
	<g id="sun_6_">
	</g>
	<g id="rainy_cloud_6_">
	</g>
</g>
</svg>
