<?xml version="1.0" encoding="utf-8"?>
<!-- Generator: Adobe Illustrator 19.1.0, SVG Export Plug-In . SVG Version: 6.00 Build 0)  -->
<svg version="1.1" xmlns="http://www.w3.org/2000/svg" xmlns:xlink="http://www.w3.org/1999/xlink" x="0px" y="0px"
	 viewBox="0 0 369.9 223.5" style="enable-background:new 0 0 369.9 223.5;" xml:space="preserve">
<style type="text/css">
	.st0{fill:#FFFFFF;}
	.st1{fill:#DCE11F;}
	.st2{fill:#FFFFFF;stroke:#DCE125;stroke-width:13;stroke-miterlimit:10;}
	.st3{fill:#365BA9;}
</style>
<g id="Layer_1">
	<g>
		<g>
			<path class="st0" d="M194.8,220.5c-35.1,0-70.1,0.1-105.2,0c-25.1-0.1-46.7-8.9-63.9-27.4C7.8,174,0.1,151.1,3,125.1
				c4-35.6,28.2-63.8,62.4-73.4c9.4-2.6,18.9-3.9,28.7-2.7c2.1,0.2,3.2-0.5,4.4-2.1C117.3,21.9,142.2,7,173.2,3.3
				c52-6.3,101.5,25.2,117.1,76.3c1,3.3,2.4,4.1,5.7,3.8c36.4-3.2,68.9,23.4,73.4,59.7c5.1,41.2-26.7,77.3-68.3,77.4
				C265.6,220.6,230.2,220.5,194.8,220.5z"/>
		</g>
		<g>
			<path d="M194.8,220.5c-35.1,0-70.1,0.1-105.2,0c-25.1-0.1-46.7-8.9-63.9-27.4C7.8,174,0.1,151.1,3,125.1
				c4-35.6,28.2-63.8,62.4-73.4c9.4-2.6,18.9-3.9,28.7-2.7c2.1,0.2,3.2-0.5,4.4-2.1C117.3,21.9,142.2,7,173.2,3.3
				c52-6.3,101.5,25.2,117.1,76.3c1,3.3,2.4,4.1,5.7,3.8c36.4-3.2,68.9,23.4,73.4,59.7c5.1,41.2-26.7,77.3-68.3,77.4
				C265.6,220.6,230.2,220.5,194.8,220.5z M194.4,209.7c34.1,0,68.2,0,102.3,0c3.6,0,7.2-0.2,10.7-0.5c33.2-3.1,57.4-35.8,50.6-68.4
				c-6.7-31.7-35.1-51.1-67.2-45.9c-6.2,1-7.7,0-9.3-6.3C268.3,34.4,213.3,1.9,159.6,17c-22.6,6.4-40.8,19.5-54.2,38.9
				c-2.2,3.2-4.6,4.6-8.7,4.1c-8.9-1.2-17.9-0.6-26.6,1.6C33.1,70.9,9.2,106.8,13.8,143c2.2,17.4,9.2,32.3,21.6,44.6
				c15.4,15.3,34.1,22.2,55.7,22.1C125.5,209.6,160,209.7,194.4,209.7z"/>
			<path d="M267.1,83.5c-1.1,1.2-2.2,3.2-3.8,4.1c-2.3,1.2-4.8,0.5-6.3-1.9c-0.8-1.3-1.3-2.8-2-4.2c-10.2-21.8-26.8-36.2-50-42.6
				c-5.6-1.5-7.7-3.7-6.7-7.4c0.9-3.7,3.8-4.8,9.4-3.2c27.6,7.8,47.1,24.8,58.3,51.3C266.3,80.6,266.5,81.6,267.1,83.5z"/>
			<path d="M36.4,95.7C43.5,82.5,54.5,74,69.8,71.2c1.9-0.3,4.6-0.2,6,0.9c1.3,1.1,2.2,4,1.7,5.6c-0.5,1.6-2.8,3-4.6,3.8
				C68,83.7,62.7,84.9,58,87.4c-5.7,3.1-9.4,8.3-12.3,14.1c-2.1,4-6.4,4.8-9.1,1.9C34.5,101.1,35,98.6,36.4,95.7z"/>
		</g>
	</g>
</g>
<g id="overcast">
</g>
<g id="sun">
</g>
<g id="rainy_cloud">
</g>
</svg>
