<?xml version="1.0" encoding="utf-8"?>
<!-- Generator: Adobe Illustrator 19.1.0, SVG Export Plug-In . SVG Version: 6.00 Build 0)  -->
<svg version="1.1" xmlns="http://www.w3.org/2000/svg" xmlns:xlink="http://www.w3.org/1999/xlink" x="0px" y="0px"
	 viewBox="0 0 407.5 369.6" style="enable-background:new 0 0 407.5 369.6;" xml:space="preserve">
<style type="text/css">
	.st0{fill:#FFFFFF;}
	.st1{fill:#DCE11F;}
	.st2{fill:#FFFFFF;stroke:#DCE125;stroke-width:13;stroke-miterlimit:10;}
	.st3{fill:#365BA9;}
</style>
<g id="Layer_1">
</g>
<g id="overcast">
	<g>
		<g>
			<path class="st0" d="M173,158.4c0-43.5,35-78.7,78.3-78.7s78.3,35.2,78.3,78.7s-30.1,78.7-73.4,78.7S173,201.9,173,158.4z"/>
			<g>
				<path class="st0" d="M95.4,314.2c0.2,0.2,0.4,0.4,0.6,0.6C95.5,314.9,95.3,314.7,95.4,314.2z"/>
				<path class="st1" d="M251.4,252.9c-52.7,0-95.3-42.4-95.4-95.4c-0.1-53,43.1-95.6,95.6-95.5c52.9,0.1,95.3,42.9,95.3,96.5
					C346.9,210.3,303.8,252.9,251.4,252.9z M174,157.2c-0.1,42.1,33.6,77.5,77.2,77.7c43,0.2,77.7-34.1,77.8-77.3
					c0-43.6-34.8-77.1-76.1-77.5C209.1,79.6,174,114.2,174,157.2z"/>
				<path class="st2" d="M246.1,286.8c0-4.2,0-8.5,0-12.7c0.1-5.7,3.7-9.6,8.9-9.7c5.2-0.1,9.1,3.7,9.2,9.4c0.1,8.7,0.1,17.3,0,26
					c-0.1,5.6-4.1,9.6-9.1,9.6c-5.2,0-9-4.2-9-10C246,295.3,246.1,291.1,246.1,286.8z"/>
				<path class="st2" d="M246.1,29.5c0-4.2,0-8.5,0-12.7c0.1-5.6,3.9-9.6,9-9.7c4.9,0,9,3.9,9.1,9.3c0.2,8.9,0.2,17.7,0,26.6
					c-0.1,5.7-4.1,9.3-9.4,9.1c-5.1-0.1-8.6-4-8.6-9.6C246,38.2,246.1,33.9,246.1,29.5z"/>
				<path class="st2" d="M340.7,61.8c2.9-3.1,5.7-6.3,8.6-9.3c3.8-4.1,9.4-4.5,13.2-1.1c3.7,3.3,4,8.9,0.4,13
					c-5.9,6.6-11.8,13.2-18,19.6c-3.9,4.1-9.3,4.1-13.1,0.3c-3.6-3.5-3.6-8.7,0.1-12.9C334.8,68.1,337.7,64.9,340.7,61.8z"/>
				<path class="st2" d="M178.8,75.2c0,4.2-1.4,6.8-4.4,8.6c-3.1,1.8-6.2,1.7-9.2-0.1c-0.8-0.4-1.5-1-2.1-1.6
					c-6.1-6.1-12.3-12.1-18.3-18.4c-5.4-5.6-3.2-13.7,4-15.5c3.1-0.8,5.9,0.1,8.1,2.3c6.5,6.4,13,12.9,19.4,19.4
					C177.9,71.5,178.8,73.6,178.8,75.2z"/>
				<path class="st2" d="M360.6,258c0,6.7-6.9,11-12.9,7.9c-0.9-0.5-1.9-1.1-2.6-1.9c-6.2-6.2-12.5-12.3-18.6-18.6
					c-3.4-3.5-3.8-8.2-1.3-11.9c2.3-3.3,6.9-4.7,10.8-3.1c1.3,0.5,2.4,1.4,3.3,2.4c6.1,6.1,12.2,12.3,18.4,18.4
					C359.5,253.1,360.7,255.3,360.6,258z"/>
				<path class="st2" d="M178.8,238.7c0.1,2.5-0.8,4.6-2.5,6.4c-6.5,6.5-12.9,13-19.4,19.4c-3.4,3.3-8.5,3.4-12,0.3
					c-3.6-3.2-4.4-8.6-1.1-12.1c6.7-7.2,13.7-14.1,20.9-20.9c2.6-2.5,6-2.6,9.4-0.8C177.1,232.5,178.6,235.2,178.8,238.7z"/>
				<path class="st2" d="M120.3,169.5c-4.3,0-8.7,0-13,0c-5.4,0-9.4-3.7-9.5-8.8c-0.1-4.9,3.6-9,8.9-9c9.1-0.2,18.3-0.2,27.4,0
					c5.5,0.1,8.9,4.1,8.7,9.4c-0.2,4.9-4,8.3-9.2,8.4C129.1,169.6,124.7,169.5,120.3,169.5z"/>
				<path class="st2" d="M377.6,169.5c-4.4,0-8.9,0-13.3,0c-5.3,0-9.1-3.6-9.2-8.7c-0.1-5.2,3.3-9.1,8.7-9.2
					c9.2-0.2,18.5-0.1,27.7,0c5.1,0.1,8.7,4.2,8.6,9c-0.1,4.9-4.1,8.7-9.2,8.8C386.5,169.6,382,169.5,377.6,169.5z"/>
				<path class="st1" d="M240.3,96.7c0.7,0,2-0.1,3.3,0c2.4,0.3,3.7,1.8,3.8,4.2c0.1,2.3-1.1,3.9-3.4,4.5c-2.8,0.7-5.6,0.3-8.5,0.9
					c-12.2,2.3-21.7,8.7-28.6,19c-0.3,0.5-0.6,1-1,1.5c-1.7,2.2-4.1,2.8-6.2,1.5c-2.2-1.3-2.8-3.9-1.3-6.4
					c4.8-8,11.4-14.2,19.6-18.7C224.7,99.3,232,97.1,240.3,96.7z"/>
			</g>
		</g>
		<g>
			<g>
				<path class="st0" d="M192.3,369.5c-35.1,0-70.1,0.1-105.2,0c-25.1-0.1-46.7-8.9-63.9-27.4C5.4,323-2.3,300.1,0.6,274.1
					c4-35.6,28.2-63.8,62.4-73.4c9.4-2.6,18.9-3.9,28.7-2.7c2.1,0.2,3.2-0.5,4.4-2.1c18.8-24.9,43.7-39.7,74.6-43.5
					c52-6.3,101.5,25.2,117.1,76.3c1,3.3,2.4,4.1,5.7,3.8c36.4-3.2,68.9,23.4,73.4,59.7c5.1,41.2-26.7,77.3-68.3,77.4
					C263.2,369.6,227.8,369.5,192.3,369.5z"/>
			</g>
			<g>
				<path d="M192.3,369.5c-35.1,0-70.1,0.1-105.2,0c-25.1-0.1-46.7-8.9-63.9-27.4C5.4,323-2.3,300.1,0.6,274.1
					c4-35.6,28.2-63.8,62.4-73.4c9.4-2.6,18.9-3.9,28.7-2.7c2.1,0.2,3.2-0.5,4.4-2.1c18.8-24.9,43.7-39.7,74.6-43.5
					c52-6.3,101.5,25.2,117.1,76.3c1,3.3,2.4,4.1,5.7,3.8c36.4-3.2,68.9,23.4,73.4,59.7c5.1,41.2-26.7,77.3-68.3,77.4
					C263.2,369.6,227.8,369.5,192.3,369.5z M192,358.7c34.1,0,68.2,0,102.3,0c3.6,0,7.2-0.2,10.7-0.5c33.2-3.1,57.4-35.8,50.6-68.4
					c-6.7-31.7-35.1-51.1-67.2-45.9c-6.2,1-7.7,0-9.3-6.3c-13.3-54.3-68.3-86.7-121.9-71.7c-22.6,6.4-40.8,19.5-54.2,38.9
					c-2.2,3.2-4.6,4.6-8.7,4.1c-8.9-1.2-17.9-0.6-26.6,1.6c-37.1,9.3-60.9,45.1-56.4,81.4c2.2,17.4,9.2,32.3,21.6,44.6
					c15.4,15.3,34.1,22.2,55.7,22.1C123.1,358.6,157.6,358.7,192,358.7z"/>
				<path d="M264.7,232.5c-1.1,1.2-2.2,3.2-3.8,4.1c-2.3,1.2-4.8,0.5-6.3-1.9c-0.8-1.3-1.3-2.8-2-4.2c-10.2-21.8-26.8-36.2-50-42.6
					c-5.6-1.5-7.7-3.7-6.7-7.4c0.9-3.7,3.8-4.8,9.4-3.2c27.6,7.8,47.1,24.8,58.3,51.3C263.9,229.6,264.1,230.6,264.7,232.5z"/>
				<path d="M34,244.7c7.1-13.2,18.1-21.8,33.4-24.5c1.9-0.3,4.6-0.2,6,0.9c1.3,1.1,2.2,4,1.7,5.6c-0.5,1.6-2.8,3-4.6,3.8
					c-4.9,2.1-10.2,3.4-14.9,5.9c-5.7,3.1-9.4,8.3-12.3,14.1c-2.1,4-6.4,4.8-9.1,1.9C32.1,250.1,32.6,247.6,34,244.7z"/>
			</g>
		</g>
	</g>
</g>
<g id="sun">
</g>
<g id="rainy_cloud">
</g>
</svg>
