<?xml version="1.0" encoding="utf-8"?>
<!-- Generator: Adobe Illustrator 19.1.0, SVG Export Plug-In . SVG Version: 6.00 Build 0)  -->
<svg version="1.1" xmlns="http://www.w3.org/2000/svg" xmlns:xlink="http://www.w3.org/1999/xlink" x="0px" y="0px"
	 viewBox="0 0 369.4 330.5" style="enable-background:new 0 0 369.4 330.5;" xml:space="preserve">
<style type="text/css">
	.st0{fill:#FFFFFF;}
	.st1{fill:#DCE11F;}
	.st2{fill:#FFFFFF;stroke:#DCE125;stroke-width:13;stroke-miterlimit:10;}
	.st3{fill:#365BA9;}
</style>
<g id="Layer_1">
</g>
<g id="overcast">
</g>
<g id="sun">
</g>
<g id="rainy_cloud">
	<g>
		<g>
			<g>
				<path class="st0" d="M192.3,220.5c-35.1,0-70.1,0.1-105.2,0c-25.1-0.1-46.7-8.9-63.9-27.4C5.4,174-2.3,151.1,0.6,125.1
					c4-35.6,28.2-63.8,62.4-73.4c9.4-2.6,18.9-3.9,28.7-2.7c2.1,0.2,3.2-0.5,4.4-2.1C114.9,21.8,139.8,7,170.7,3.3
					c52-6.3,101.5,25.2,117.1,76.3c1,3.3,2.4,4.1,5.7,3.8c36.4-3.2,68.9,23.4,73.4,59.7c5.1,41.2-26.7,77.3-68.3,77.4
					C263.2,220.6,227.8,220.5,192.3,220.5z"/>
			</g>
			<g>
				<path d="M192.3,220.5c-35.1,0-70.1,0.1-105.2,0c-25.1-0.1-46.7-8.9-63.9-27.4C5.4,174-2.3,151.1,0.6,125.1
					c4-35.6,28.2-63.8,62.4-73.4c9.4-2.6,18.9-3.9,28.7-2.7c2.1,0.2,3.2-0.5,4.4-2.1C114.9,21.8,139.8,7,170.7,3.3
					c52-6.3,101.5,25.2,117.1,76.3c1,3.3,2.4,4.1,5.7,3.8c36.4-3.2,68.9,23.4,73.4,59.7c5.1,41.2-26.7,77.3-68.3,77.4
					C263.2,220.6,227.8,220.5,192.3,220.5z M192,209.7c34.1,0,68.2,0,102.3,0c3.6,0,7.2-0.2,10.7-0.5c33.2-3.1,57.4-35.8,50.6-68.4
					c-6.7-31.7-35.1-51.1-67.2-45.9c-6.2,1-7.7,0-9.3-6.3C265.9,34.4,210.9,1.9,157.2,17c-22.6,6.4-40.8,19.5-54.2,38.9
					c-2.2,3.2-4.6,4.6-8.7,4.1c-8.9-1.2-17.9-0.6-26.6,1.6C30.7,70.9,6.8,106.7,11.4,143c2.2,17.4,9.2,32.3,21.6,44.6
					c15.4,15.3,34.1,22.2,55.7,22.1C123.1,209.6,157.6,209.7,192,209.7z"/>
				<path d="M264.7,83.5c-1.1,1.2-2.2,3.2-3.8,4.1c-2.3,1.2-4.8,0.5-6.3-1.9c-0.8-1.3-1.3-2.8-2-4.2c-10.2-21.8-26.8-36.2-50-42.6
					c-5.6-1.5-7.7-3.7-6.7-7.4c0.9-3.7,3.8-4.8,9.4-3.2c27.6,7.8,47.1,24.8,58.3,51.3C263.9,80.6,264.1,81.6,264.7,83.5z"/>
				<path d="M34,95.7C41,82.5,52.1,74,67.3,71.2c1.9-0.3,4.6-0.2,6,0.9c1.3,1.1,2.2,4,1.7,5.6c-0.5,1.6-2.8,3-4.6,3.8
					c-4.9,2.1-10.2,3.4-14.9,5.9c-5.7,3.1-9.4,8.3-12.3,14.1c-2.1,4-6.4,4.8-9.1,1.9C32.1,101.1,32.6,98.6,34,95.7z"/>
			</g>
		</g>
		<path class="st3" d="M134.9,265.2c-0.1,8.5-8.8,13.9-16.4,10c-1.2-0.6-2.4-1.4-3.3-2.4c-7.9-7.8-15.8-15.6-23.5-23.5
			c-4.3-4.4-4.8-10.4-1.6-15c2.9-4.2,8.7-5.9,13.6-4c1.7,0.7,3,1.8,4.2,3c7.8,7.8,15.5,15.5,23.3,23.3
			C133.6,259,135.1,261.7,134.9,265.2z"/>
		<path class="st3" d="M183.8,265.2c-0.1,8.5-8.8,13.9-16.4,10c-1.2-0.6-2.4-1.4-3.3-2.4c-7.9-7.8-15.8-15.6-23.5-23.5
			c-4.3-4.4-4.8-10.4-1.6-15c2.9-4.2,8.7-5.9,13.6-4c1.7,0.7,3,1.8,4.2,3c7.8,7.8,15.5,15.5,23.3,23.3
			C182.4,259,183.9,261.7,183.8,265.2z"/>
		<path class="st3" d="M246.9,265.2c-0.1,8.5-8.8,13.9-16.4,10c-1.2-0.6-2.4-1.4-3.3-2.4c-7.9-7.8-15.8-15.6-23.5-23.5
			c-4.3-4.4-4.8-10.4-1.6-15c2.9-4.2,8.7-5.9,13.6-4c1.7,0.7,3,1.8,4.2,3c7.8,7.8,15.5,15.5,23.3,23.3
			C245.6,259,247.1,261.7,246.9,265.2z"/>
		<path class="st3" d="M304.9,265.2c-0.1,8.5-8.8,13.9-16.4,10c-1.2-0.6-2.4-1.4-3.3-2.4c-7.9-7.8-15.8-15.6-23.5-23.5
			c-4.3-4.4-4.8-10.4-1.6-15c2.9-4.2,8.7-5.9,13.6-4c1.7,0.7,3,1.8,4.2,3c7.8,7.8,15.5,15.5,23.3,23.3
			C303.6,259,305.1,261.7,304.9,265.2z"/>
		<path class="st3" d="M298.9,316.5c-0.1,8.5-8.8,13.9-16.4,10c-1.2-0.6-2.4-1.4-3.3-2.4c-7.9-7.8-15.8-15.6-23.5-23.5
			c-4.3-4.4-4.8-10.4-1.6-15c2.9-4.2,8.7-5.9,13.6-4c1.7,0.7,3,1.8,4.2,3c7.8,7.8,15.5,15.5,23.3,23.3
			C297.6,310.3,299.1,313.1,298.9,316.5z"/>
		<path class="st3" d="M241.6,316.5c-0.1,8.5-8.8,13.9-16.4,10c-1.2-0.6-2.4-1.4-3.3-2.4c-7.9-7.8-15.8-15.6-23.5-23.5
			c-4.3-4.4-4.8-10.4-1.6-15c2.9-4.2,8.7-5.9,13.6-4c1.7,0.7,3,1.8,4.2,3c7.8,7.8,15.5,15.5,23.3,23.3
			C240.3,310.3,241.7,313.1,241.6,316.5z"/>
		<path class="st3" d="M188.3,316.5c-0.1,8.5-8.8,13.9-16.4,10c-1.2-0.6-2.4-1.4-3.3-2.4c-7.9-7.8-15.8-15.6-23.5-23.5
			c-4.3-4.4-4.8-10.4-1.6-15c2.9-4.2,8.7-5.9,13.6-4c1.7,0.7,3,1.8,4.2,3c7.8,7.8,15.5,15.5,23.3,23.3
			C186.9,310.3,188.4,313.1,188.3,316.5z"/>
	</g>
</g>
</svg>
