<?xml version="1.0" encoding="utf-8"?>
<!-- Generator: Adobe Illustrator 19.1.0, SVG Export Plug-In . SVG Version: 6.00 Build 0)  -->
<svg version="1.1" xmlns="http://www.w3.org/2000/svg" xmlns:xlink="http://www.w3.org/1999/xlink" x="0px" y="0px"
	 viewBox="0 0 514.3 514.7" style="enable-background:new 0 0 514.3 514.7;" xml:space="preserve">
<style type="text/css">
	.st0{fill:#FFFFFF;}
	.st1{fill:#DCE11F;}
	.st2{fill:#FFFFFF;stroke:#DCE125;stroke-width:13;stroke-miterlimit:10;}
	.st3{fill:#365BA9;}
</style>
<g id="Layer_1">
</g>
<g id="overcast">
</g>
<g id="sun">
	<g>
		<path class="st0" d="M132.1,256.4c0-71.7,57.8-129.9,129.1-129.9s129.1,58.1,129.1,129.9s-49.7,129.9-121,129.9
			S132.1,328.2,132.1,256.4z"/>
		<path class="st1" d="M261.2,413.9c-86.9,0-157.2-69.9-157.4-157.3C103.6,169.1,175,98.9,261.5,99c87.3,0.1,157.3,70.8,157.2,159.2
			C418.7,343.6,347.6,413.9,261.2,413.9z M133.4,256.1c-0.2,69.4,55.3,127.9,127.3,128.2C331.6,384.6,389,328,389,256.7
			c0.1-72-57.5-127.2-125.5-127.9C191.3,128.1,133.5,185.2,133.4,256.1z"/>
		<path class="st2" d="M252.3,469.9c0-7-0.1-14,0-20.9c0.1-9.5,6.1-15.9,14.7-16c8.6-0.1,15,6.2,15.1,15.6c0.2,14.3,0.2,28.6,0,42.8
			c-0.1,9.2-6.7,15.9-15,15.8c-8.6-0.1-14.8-6.9-14.9-16.4C252.3,483.9,252.3,476.9,252.3,469.9z"/>
		<path class="st2" d="M252.3,45.4c0-7-0.1-14,0-20.9c0.1-9.2,6.4-15.9,14.8-16c8.1-0.1,14.8,6.4,15,15.3c0.3,14.6,0.3,29.2,0,43.8
			c-0.2,9.4-6.7,15.3-15.6,15c-8.4-0.2-14.1-6.6-14.2-15.9C252.3,59.7,252.3,52.6,252.3,45.4z"/>
		<path class="st2" d="M408.4,98.6c4.7-5.1,9.4-10.3,14.2-15.4c6.3-6.7,15.5-7.4,21.7-1.7c6,5.5,6.6,14.8,0.7,21.4
			c-9.7,10.9-19.5,21.7-29.6,32.3c-6.5,6.8-15.3,6.7-21.6,0.6c-6-5.8-6-14.4,0.2-21.3C398.7,109.1,403.5,103.9,408.4,98.6z"/>
		<path class="st2" d="M141.3,120.8c0,6.9-2.4,11.3-7.2,14.2c-5,3-10.2,2.9-15.2-0.1c-1.2-0.7-2.4-1.7-3.4-2.7
			c-10.1-10.1-20.4-20-30.3-30.3c-8.9-9.2-5.3-22.7,6.6-25.6c5.1-1.3,9.7,0.1,13.4,3.7c10.8,10.6,21.4,21.3,32,32
			C139.9,114.8,141.3,118.1,141.3,120.8z"/>
		<path class="st2" d="M441.3,422.4c-0.1,11.1-11.5,18.1-21.4,13c-1.6-0.8-3.1-1.8-4.3-3.1c-10.3-10.2-20.5-20.3-30.6-30.7
			c-5.6-5.7-6.3-13.6-2.1-19.6c3.8-5.5,11.4-7.7,17.8-5.2c2.2,0.8,3.9,2.3,5.5,3.9c10.1,10.1,20.2,20.2,30.3,30.3
			C439.5,414.3,441.5,417.9,441.3,422.4z"/>
		<path class="st2" d="M141.3,390.5c0.1,4.1-1.3,7.6-4.2,10.5c-10.7,10.7-21.3,21.4-32.1,32c-5.6,5.5-14.1,5.5-19.8,0.4
			c-5.9-5.3-7.3-14.3-1.8-20c11.1-11.8,22.6-23.3,34.4-34.4c4.3-4.1,10-4.2,15.4-1.4C138.5,380.3,141,384.7,141.3,390.5z"/>
		<path class="st2" d="M44.8,276.4c-7.1,0-14.3,0-21.4,0c-8.9-0.1-15.5-6.2-15.7-14.5c-0.2-8.1,5.9-14.8,14.6-14.9
			c15.1-0.3,30.2-0.3,45.3,0c9,0.2,14.6,6.7,14.3,15.6c-0.3,8-6.5,13.8-15.1,13.8C59.4,276.5,52.1,276.4,44.8,276.4z"/>
		<path class="st2" d="M469.3,276.4c-7.3,0-14.6,0.1-21.9,0c-8.8-0.1-15-6-15.2-14.3c-0.2-8.5,5.5-14.9,14.3-15.1
			c15.2-0.3,30.5-0.2,45.7,0.1c8.3,0.2,14.4,6.9,14.2,14.9c-0.2,8.1-6.7,14.4-15.2,14.5C483.9,276.5,476.6,276.4,469.3,276.4z"/>
		<path class="st1" d="M242.8,156.2c1.2,0,3.3-0.2,5.4,0c3.9,0.5,6.1,2.9,6.2,6.9c0.1,3.9-1.7,6.4-5.6,7.4c-4.6,1.1-9.3,0.6-14,1.5
			c-20.2,3.9-35.8,14.4-47.2,31.3c-0.5,0.8-1,1.7-1.6,2.4c-2.8,3.6-6.8,4.5-10.2,2.4c-3.6-2.2-4.6-6.5-2.1-10.6
			c8-13.2,18.8-23.5,32.3-30.9C217.1,160.5,229.1,156.9,242.8,156.2z"/>
	</g>
</g>
<g id="rainy_cloud">
</g>
</svg>
