<?xml version="1.0" encoding="utf-8"?>
<!-- Generator: Adobe Illustrator 19.1.0, SVG Export Plug-In . SVG Version: 6.00 Build 0)  -->
<svg version="1.1" xmlns="http://www.w3.org/2000/svg" xmlns:xlink="http://www.w3.org/1999/xlink" x="0px" y="0px"
	 viewBox="0 0 612 792" style="enable-background:new 0 0 612 792;" xml:space="preserve">
<style type="text/css">
	.st0{fill:#FFFFFF;}
	.st1{fill:#DCE11F;}
	.st2{fill:#FFFFFF;stroke:#DCE125;stroke-width:13;stroke-miterlimit:10;}
	.st3{fill:#365BA9;}
</style>
<g id="Layer_1">
</g>
<g id="overcast">
</g>
<g id="sun">
	<g>
		<path class="st0" d="M241.6,198.1c0-45.4,36.6-82.1,81.7-82.1s81.7,36.8,81.7,82.1s-31.4,82.1-76.5,82.1S241.6,243.5,241.6,198.1z
			"/>
		<path class="st0" d="M160.4,361.7c0.2,0.2,0.4,0.4,0.6,0.6C160.5,362.4,160.3,362.2,160.4,361.7z"/>
		<path class="st1" d="M323.2,297.7c-55,0-99.4-44.2-99.5-99.5c-0.1-55.3,45-99.7,99.8-99.7c55.2,0.1,99.5,44.8,99.4,100.7
			C422.8,253.2,377.8,297.7,323.2,297.7z M242.4,197.9c-0.1,43.9,35,80.9,80.5,81.1c44.8,0.2,81.1-35.6,81.1-80.7
			c0-45.5-36.3-80.4-79.4-80.9C279,117,242.5,153.1,242.4,197.9z"/>
		<path class="st2" d="M317.6,333.1c0-4.4,0-8.8,0-13.2c0.1-6,3.9-10,9.3-10.1c5.4-0.1,9.5,3.9,9.6,9.9c0.1,9,0.1,18.1,0,27.1
			c-0.1,5.8-4.2,10.1-9.5,10c-5.4,0-9.4-4.4-9.4-10.4C317.6,342,317.6,337.5,317.6,333.1z"/>
		<path class="st2" d="M317.6,64.7c0-4.4,0-8.8,0-13.2c0.1-5.8,4.1-10.1,9.4-10.1c5.1,0,9.4,4.1,9.5,9.7c0.2,9.2,0.2,18.5,0,27.7
			c-0.1,5.9-4.2,9.7-9.8,9.5c-5.3-0.1-8.9-4.2-9-10C317.5,73.7,317.6,69.2,317.6,64.7z"/>
		<path class="st2" d="M416.3,98.3c3-3.3,5.9-6.5,9-9.7c4-4.2,9.8-4.7,13.7-1.1c3.8,3.5,4.2,9.3,0.4,13.6
			c-6.1,6.9-12.3,13.7-18.7,20.4c-4.1,4.3-9.7,4.3-13.7,0.4c-3.8-3.7-3.8-9.1,0.1-13.5C410.1,104.9,413.2,101.6,416.3,98.3z"/>
		<path class="st2" d="M247.4,112.4c0,4.4-1.5,7.1-4.6,8.9c-3.2,1.9-6.4,1.8-9.6-0.1c-0.8-0.5-1.5-1.1-2.2-1.7
			c-6.4-6.4-12.9-12.7-19.1-19.2c-5.6-5.8-3.3-14.3,4.1-16.2c3.2-0.8,6.2,0.1,8.5,2.4c6.8,6.7,13.5,13.5,20.3,20.2
			C246.5,108.5,247.4,110.7,247.4,112.4z"/>
		<path class="st2" d="M437.1,303.1c0,7-7.2,11.4-13.5,8.2c-1-0.5-2-1.2-2.7-1.9c-6.5-6.4-13-12.9-19.4-19.4
			c-3.5-3.6-4-8.6-1.3-12.4c2.4-3.5,7.2-4.9,11.2-3.3c1.4,0.5,2.5,1.5,3.5,2.5c6.4,6.4,12.8,12.8,19.2,19.2
			C436,298,437.2,300.2,437.1,303.1z"/>
		<path class="st2" d="M247.4,282.9c0.1,2.6-0.8,4.8-2.6,6.7c-6.8,6.7-13.5,13.5-20.3,20.2c-3.5,3.5-8.9,3.5-12.5,0.3
			c-3.8-3.4-4.6-9-1.1-12.7c7-7.5,14.3-14.7,21.8-21.8c2.7-2.6,6.3-2.7,9.8-0.9C245.6,276.5,247.2,279.2,247.4,282.9z"/>
		<path class="st2" d="M186.4,210.8c-4.5,0-9,0-13.5,0c-5.6,0-9.8-3.9-9.9-9.2c-0.1-5.1,3.8-9.3,9.2-9.4c9.5-0.2,19.1-0.2,28.6,0
			c5.7,0.1,9.2,4.2,9,9.8c-0.2,5.1-4.1,8.7-9.6,8.8C195.6,210.8,191,210.8,186.4,210.8z"/>
		<path class="st2" d="M454.8,210.8c-4.6,0-9.2,0-13.9,0c-5.6-0.1-9.5-3.8-9.6-9c-0.1-5.4,3.5-9.4,9-9.5c9.6-0.2,19.3-0.2,28.9,0
			c5.3,0.1,9.1,4.4,9,9.4c-0.1,5.1-4.3,9.1-9.6,9.2C464.1,210.8,459.4,210.8,454.8,210.8z"/>
		<path class="st1" d="M311.5,134.7c0.8,0,2.1-0.1,3.4,0c2.5,0.3,3.9,1.8,3.9,4.3c0.1,2.5-1.1,4.1-3.6,4.7c-2.9,0.7-5.9,0.4-8.8,0.9
			c-12.7,2.4-22.6,9.1-29.8,19.8c-0.3,0.5-0.6,1.1-1,1.5c-1.8,2.3-4.3,2.9-6.5,1.5c-2.3-1.4-2.9-4.1-1.3-6.7
			c5-8.3,11.9-14.8,20.4-19.5C295.3,137.4,302.9,135.2,311.5,134.7z"/>
	</g>
</g>
<g id="rainy_cloud">
	<g>
		<g>
			<g>
				<path class="st0" d="M281.5,369.4c-35.1,0-70.1,0.1-105.2,0c-25.1-0.1-46.7-8.9-63.9-27.4c-17.8-19.1-25.6-42-22.6-68.1
					c4-35.6,28.2-63.8,62.4-73.4c9.4-2.6,18.9-3.9,28.7-2.7c2.1,0.2,3.2-0.5,4.4-2.1c18.8-24.9,43.7-39.7,74.6-43.5
					c52-6.3,101.5,25.2,117.1,76.3c1,3.3,2.4,4.1,5.7,3.8c36.4-3.2,68.9,23.4,73.4,59.7c5.1,41.2-26.7,77.3-68.3,77.4
					C352.4,369.4,316.9,369.4,281.5,369.4z"/>
			</g>
			<g>
				<path d="M281.5,369.4c-35.1,0-70.1,0.1-105.2,0c-25.1-0.1-46.7-8.9-63.9-27.4c-17.8-19.1-25.6-42-22.6-68.1
					c4-35.6,28.2-63.8,62.4-73.4c9.4-2.6,18.9-3.9,28.7-2.7c2.1,0.2,3.2-0.5,4.4-2.1c18.8-24.9,43.7-39.7,74.6-43.5
					c52-6.3,101.5,25.2,117.1,76.3c1,3.3,2.4,4.1,5.7,3.8c36.4-3.2,68.9,23.4,73.4,59.7c5.1,41.2-26.7,77.3-68.3,77.4
					C352.4,369.4,316.9,369.4,281.5,369.4z M281.2,358.5c34.1,0,68.2,0,102.3,0c3.6,0,7.2-0.2,10.7-0.5
					c33.2-3.1,57.4-35.8,50.6-68.4c-6.7-31.7-35.1-51.1-67.2-45.9c-6.2,1-7.7,0-9.3-6.3c-13.3-54.3-68.3-86.7-121.9-71.7
					c-22.6,6.4-40.8,19.5-54.2,38.9c-2.2,3.2-4.6,4.6-8.7,4.1c-8.9-1.2-17.9-0.6-26.6,1.6c-37.1,9.3-60.9,45.1-56.4,81.4
					c2.2,17.4,9.2,32.3,21.6,44.6c15.4,15.3,34.1,22.2,55.7,22.1C212.3,358.4,246.7,358.5,281.2,358.5z"/>
				<path d="M353.9,232.3c-1.1,1.2-2.2,3.2-3.8,4.1c-2.3,1.2-4.8,0.5-6.3-1.9c-0.8-1.3-1.3-2.8-2-4.2c-10.2-21.8-26.8-36.2-50-42.6
					c-5.6-1.5-7.7-3.7-6.7-7.4c0.9-3.7,3.8-4.8,9.4-3.2c27.6,7.8,47.1,24.8,58.3,51.3C353.1,229.4,353.3,230.4,353.9,232.3z"/>
				<path d="M123.2,244.6c7.1-13.2,18.1-21.8,33.4-24.5c1.9-0.3,4.6-0.2,6,0.9c1.3,1.1,2.2,4,1.7,5.6c-0.5,1.6-2.8,3-4.6,3.8
					c-4.9,2.1-10.2,3.4-14.9,5.9c-5.7,3.1-9.4,8.3-12.3,14.1c-2.1,4-6.4,4.8-9.1,1.9C121.3,249.9,121.8,247.4,123.2,244.6z"/>
			</g>
		</g>
		<path class="st3" d="M224.1,414c-0.1,8.5-8.8,13.9-16.4,10c-1.2-0.6-2.4-1.4-3.3-2.4c-7.9-7.8-15.8-15.6-23.5-23.5
			c-4.3-4.4-4.8-10.4-1.6-15c2.9-4.2,8.7-5.9,13.6-4c1.7,0.7,3,1.8,4.2,3c7.8,7.8,15.5,15.5,23.3,23.3
			C222.8,407.8,224.3,410.6,224.1,414z"/>
		<path class="st3" d="M273,414c-0.1,8.5-8.8,13.9-16.4,10c-1.2-0.6-2.4-1.4-3.3-2.4c-7.9-7.8-15.8-15.6-23.5-23.5
			c-4.3-4.4-4.8-10.4-1.6-15c2.9-4.2,8.7-5.9,13.6-4c1.7,0.7,3,1.8,4.2,3c7.8,7.8,15.5,15.5,23.3,23.3
			C271.6,407.8,273.1,410.6,273,414z"/>
		<path class="st3" d="M336.1,414c-0.1,8.5-8.8,13.9-16.4,10c-1.2-0.6-2.4-1.4-3.3-2.4c-7.9-7.8-15.8-15.6-23.5-23.5
			c-4.3-4.4-4.8-10.4-1.6-15c2.9-4.2,8.7-5.9,13.6-4c1.7,0.7,3,1.8,4.2,3c7.8,7.8,15.5,15.5,23.3,23.3
			C334.8,407.8,336.3,410.6,336.1,414z"/>
		<path class="st3" d="M394.1,414c-0.1,8.5-8.8,13.9-16.4,10c-1.2-0.6-2.4-1.4-3.3-2.4c-7.9-7.8-15.8-15.6-23.5-23.5
			c-4.3-4.4-4.8-10.4-1.6-15c2.9-4.2,8.7-5.9,13.6-4c1.7,0.7,3,1.8,4.2,3c7.8,7.8,15.5,15.5,23.3,23.3
			C392.8,407.8,394.3,410.6,394.1,414z"/>
		<path class="st3" d="M388.1,465.4c-0.1,8.5-8.8,13.9-16.4,10c-1.2-0.6-2.4-1.4-3.3-2.4c-7.9-7.8-15.8-15.6-23.5-23.5
			c-4.3-4.4-4.8-10.4-1.6-15c2.9-4.2,8.7-5.9,13.6-4c1.7,0.7,3,1.8,4.2,3c7.8,7.8,15.5,15.5,23.3,23.3
			C386.8,459.1,388.3,461.9,388.1,465.4z"/>
		<path class="st3" d="M330.8,465.4c-0.1,8.5-8.8,13.9-16.4,10c-1.2-0.6-2.4-1.4-3.3-2.4c-7.9-7.8-15.8-15.6-23.5-23.5
			c-4.3-4.4-4.8-10.4-1.6-15c2.9-4.2,8.7-5.9,13.6-4c1.7,0.7,3,1.8,4.2,3c7.8,7.8,15.5,15.5,23.3,23.3
			C329.4,459.1,330.9,461.9,330.8,465.4z"/>
		<path class="st3" d="M277.4,465.4c-0.1,8.5-8.8,13.9-16.4,10c-1.2-0.6-2.4-1.4-3.3-2.4c-7.9-7.8-15.8-15.6-23.5-23.5
			c-4.3-4.4-4.8-10.4-1.6-15c2.9-4.2,8.7-5.9,13.6-4c1.7,0.7,3,1.8,4.2,3c7.8,7.8,15.5,15.5,23.3,23.3
			C276.1,459.1,277.6,461.9,277.4,465.4z"/>
	</g>
</g>
</svg>
