<?xml version="1.0" encoding="utf-8"?>
<!-- Generator: Adobe Illustrator 19.1.0, SVG Export Plug-In . SVG Version: 6.00 Build 0)  -->
<svg version="1.1" xmlns="http://www.w3.org/2000/svg" xmlns:xlink="http://www.w3.org/1999/xlink" x="0px" y="0px"
	 viewBox="0 0 401.3 442.3" style="enable-background:new 0 0 401.3 442.3;" xml:space="preserve">
<style type="text/css">
	.st0{fill:#FFFFFF;}
	.st1{fill:#DCE11F;}
	.st2{fill:#FFFFFF;stroke:#DCE125;stroke-width:13;stroke-miterlimit:10;}
	.st3{fill:#365BA9;}
</style>
<g id="Layer_1">
	<g>
		<g>
			<path class="st0" d="M-1659.1,362.2c-35.1,0-70.1,0.1-105.2,0c-25.1-0.1-46.7-8.9-63.9-27.4c-17.8-19.1-25.6-42-22.6-68.1
				c4-35.6,28.2-63.8,62.4-73.4c9.4-2.6,18.9-3.9,28.7-2.7c2.1,0.2,3.2-0.5,4.4-2.1c18.8-24.9,43.7-39.7,74.6-43.5
				c52-6.3,101.5,25.2,117.1,76.3c1,3.3,2.4,4.1,5.7,3.8c36.4-3.2,68.9,23.4,73.4,59.7c5.1,41.2-26.7,77.3-68.3,77.4
				C-1588.2,362.3-1623.7,362.2-1659.1,362.2z"/>
		</g>
		<g>
			<path d="M-1659.1,362.2c-35.1,0-70.1,0.1-105.2,0c-25.1-0.1-46.7-8.9-63.9-27.4c-17.8-19.1-25.6-42-22.6-68.1
				c4-35.6,28.2-63.8,62.4-73.4c9.4-2.6,18.9-3.9,28.7-2.7c2.1,0.2,3.2-0.5,4.4-2.1c18.8-24.9,43.7-39.7,74.6-43.5
				c52-6.3,101.5,25.2,117.1,76.3c1,3.3,2.4,4.1,5.7,3.8c36.4-3.2,68.9,23.4,73.4,59.7c5.1,41.2-26.7,77.3-68.3,77.4
				C-1588.2,362.3-1623.7,362.2-1659.1,362.2z M-1659.4,351.4c34.1,0,68.2,0,102.3,0c3.6,0,7.2-0.2,10.7-0.5
				c33.2-3.1,57.4-35.8,50.6-68.4c-6.7-31.7-35.1-51.1-67.2-45.9c-6.2,1-7.7,0-9.3-6.3c-13.3-54.3-68.3-86.7-121.9-71.7
				c-22.6,6.4-40.8,19.5-54.2,38.9c-2.2,3.2-4.6,4.6-8.7,4.1c-8.9-1.2-17.9-0.6-26.6,1.6c-37.1,9.3-60.9,45.1-56.4,81.4
				c2.2,17.4,9.2,32.3,21.6,44.6c15.4,15.3,34.1,22.2,55.7,22.1C-1728.3,351.3-1693.9,351.4-1659.4,351.4z"/>
			<path d="M-1586.7,225.2c-1.1,1.2-2.2,3.2-3.8,4.1c-2.3,1.2-4.8,0.5-6.3-1.9c-0.8-1.3-1.3-2.8-2-4.2c-10.2-21.8-26.8-36.2-50-42.6
				c-5.6-1.5-7.7-3.7-6.7-7.4c0.9-3.7,3.8-4.8,9.4-3.2c27.6,7.8,47.1,24.8,58.3,51.3C-1587.5,222.2-1587.3,223.3-1586.7,225.2z"/>
			<path d="M-1817.4,237.4c7.1-13.2,18.1-21.8,33.4-24.5c1.9-0.3,4.6-0.2,6,0.9c1.3,1.1,2.2,4,1.7,5.6c-0.5,1.6-2.8,3-4.6,3.8
				c-4.9,2.1-10.2,3.4-14.9,5.9c-5.7,3.1-9.4,8.3-12.3,14.1c-2.1,4-6.4,4.8-9.1,1.9C-1819.3,242.8-1818.8,240.3-1817.4,237.4z"/>
		</g>
	</g>
</g>
<g id="overcast">
	<g>
		<g>
			<path class="st0" d="M-1096.4,151.1c0-43.5,35-78.7,78.3-78.7s78.3,35.2,78.3,78.7s-30.1,78.7-73.4,78.7
				C-1056.4,229.8-1096.4,194.6-1096.4,151.1z"/>
			<g>
				<path class="st0" d="M-1173.9,306.9c0.2,0.2,0.4,0.4,0.6,0.6C-1173.9,307.6-1174.1,307.4-1173.9,306.9z"/>
				<path class="st1" d="M-1017.9,245.5c-52.7,0-95.3-42.4-95.4-95.4c-0.1-53,43.1-95.6,95.6-95.5c52.9,0.1,95.3,42.9,95.3,96.5
					C-922.4,202.9-965.5,245.5-1017.9,245.5z M-1095.4,149.9c-0.1,42.1,33.6,77.5,77.2,77.7c43,0.2,77.7-34.1,77.8-77.3
					c0-43.6-34.8-77.1-76.1-77.5C-1060.3,72.3-1095.3,106.9-1095.4,149.9z"/>
				<path class="st2" d="M-1023.3,279.5c0-4.2,0-8.5,0-12.7c0.1-5.7,3.7-9.6,8.9-9.7c5.2-0.1,9.1,3.7,9.2,9.4c0.1,8.7,0.1,17.3,0,26
					c-0.1,5.6-4.1,9.6-9.1,9.6c-5.2,0-9-4.2-9-10C-1023.3,288-1023.3,283.7-1023.3,279.5z"/>
				<path class="st2" d="M-1023.3,22.2c0-4.2,0-8.5,0-12.7c0.1-5.6,3.9-9.6,9-9.7c4.9,0,9,3.9,9.1,9.3c0.2,8.9,0.2,17.7,0,26.6
					c-0.1,5.7-4.1,9.3-9.4,9.1c-5.1-0.1-8.6-4-8.6-9.6C-1023.3,30.9-1023.3,26.5-1023.3,22.2z"/>
				<path class="st2" d="M-928.7,54.4c2.9-3.1,5.7-6.3,8.6-9.3c3.8-4.1,9.4-4.5,13.2-1.1c3.7,3.3,4,8.9,0.4,13
					c-5.9,6.6-11.8,13.2-18,19.6c-3.9,4.1-9.3,4.1-13.1,0.3c-3.6-3.5-3.6-8.7,0.1-12.9C-934.6,60.8-931.6,57.6-928.7,54.4z"/>
				<path class="st2" d="M-1090.6,67.9c0,4.2-1.4,6.8-4.4,8.6c-3.1,1.8-6.2,1.7-9.2-0.1c-0.8-0.4-1.5-1-2.1-1.6
					c-6.1-6.1-12.3-12.1-18.3-18.4c-5.4-5.6-3.2-13.7,4-15.5c3.1-0.8,5.9,0.1,8.1,2.3c6.5,6.4,13,12.9,19.4,19.4
					C-1091.4,64.2-1090.6,66.3-1090.6,67.9z"/>
				<path class="st2" d="M-908.8,250.7c0,6.7-6.9,11-12.9,7.9c-0.9-0.5-1.9-1.1-2.6-1.9c-6.2-6.2-12.5-12.3-18.6-18.6
					c-3.4-3.5-3.8-8.2-1.3-11.9c2.3-3.3,6.9-4.7,10.8-3.1c1.3,0.5,2.4,1.4,3.3,2.4c6.1,6.1,12.2,12.3,18.4,18.4
					C-909.8,245.8-908.6,248-908.8,250.7z"/>
				<path class="st2" d="M-1090.6,231.3c0.1,2.5-0.8,4.6-2.5,6.4c-6.5,6.5-12.9,13-19.4,19.4c-3.4,3.3-8.5,3.4-12,0.3
					c-3.6-3.2-4.4-8.6-1.1-12.1c6.7-7.2,13.7-14.1,20.9-20.9c2.6-2.5,6-2.6,9.4-0.8C-1092.3,225.2-1090.8,227.8-1090.6,231.3z"/>
				<path class="st2" d="M-1149.1,162.2c-4.3,0-8.7,0-13,0c-5.4,0-9.4-3.7-9.5-8.8c-0.1-4.9,3.6-9,8.9-9c9.1-0.2,18.3-0.2,27.4,0
					c5.5,0.1,8.9,4.1,8.7,9.4c-0.2,4.9-4,8.3-9.2,8.4C-1140.2,162.2-1144.7,162.2-1149.1,162.2z"/>
				<path class="st2" d="M-891.8,162.2c-4.4,0-8.9,0-13.3,0c-5.3,0-9.1-3.6-9.2-8.7c-0.1-5.2,3.3-9.1,8.7-9.2
					c9.2-0.2,18.5-0.1,27.7,0c5.1,0.1,8.7,4.2,8.6,9c-0.1,4.9-4.1,8.7-9.2,8.8C-882.9,162.2-887.3,162.2-891.8,162.2z"/>
				<path class="st1" d="M-1029.1,89.3c0.7,0,2-0.1,3.3,0c2.4,0.3,3.7,1.8,3.8,4.2c0.1,2.3-1.1,3.9-3.4,4.5
					c-2.8,0.7-5.6,0.3-8.5,0.9c-12.2,2.3-21.7,8.7-28.6,19c-0.3,0.5-0.6,1-1,1.5c-1.7,2.2-4.1,2.8-6.2,1.5c-2.2-1.3-2.8-3.9-1.3-6.4
					c4.8-8,11.4-14.2,19.6-18.7C-1044.6,91.9-1037.4,89.8-1029.1,89.3z"/>
				<path class="st2" d="M-1027.3,73.8"/>
			</g>
		</g>
		<g>
			<g>
				<path class="st0" d="M-1077,362.2c-35.1,0-70.1,0.1-105.2,0c-25.1-0.1-46.7-8.9-63.9-27.4c-17.8-19.1-25.6-42-22.6-68.1
					c4-35.6,28.2-63.8,62.4-73.4c9.4-2.6,18.9-3.9,28.7-2.7c2.1,0.2,3.2-0.5,4.4-2.1c18.8-24.9,43.7-39.7,74.6-43.5
					c52-6.3,101.5,25.2,117.1,76.3c1,3.3,2.4,4.1,5.7,3.8c36.4-3.2,68.9,23.4,73.4,59.7c5.1,41.2-26.7,77.3-68.3,77.4
					C-1006.2,362.3-1041.6,362.2-1077,362.2z"/>
			</g>
			<g>
				<path d="M-1077,362.2c-35.1,0-70.1,0.1-105.2,0c-25.1-0.1-46.7-8.9-63.9-27.4c-17.8-19.1-25.6-42-22.6-68.1
					c4-35.6,28.2-63.8,62.4-73.4c9.4-2.6,18.9-3.9,28.7-2.7c2.1,0.2,3.2-0.5,4.4-2.1c18.8-24.9,43.7-39.7,74.6-43.5
					c52-6.3,101.5,25.2,117.1,76.3c1,3.3,2.4,4.1,5.7,3.8c36.4-3.2,68.9,23.4,73.4,59.7c5.1,41.2-26.7,77.3-68.3,77.4
					C-1006.2,362.3-1041.6,362.2-1077,362.2z M-1077.3,351.4c34.1,0,68.2,0,102.3,0c3.6,0,7.2-0.2,10.7-0.5
					c33.2-3.1,57.4-35.8,50.6-68.4c-6.7-31.7-35.1-51.1-67.2-45.9c-6.2,1-7.7,0-9.3-6.3c-13.3-54.3-68.3-86.7-121.9-71.7
					c-22.6,6.4-40.8,19.5-54.2,38.9c-2.2,3.2-4.6,4.6-8.7,4.1c-8.9-1.2-17.9-0.6-26.6,1.6c-37.1,9.3-60.9,45.1-56.4,81.4
					c2.2,17.4,9.2,32.3,21.6,44.6c15.4,15.3,34.1,22.2,55.7,22.1C-1146.2,351.3-1111.8,351.4-1077.3,351.4z"/>
				<path d="M-1004.7,225.2c-1.1,1.2-2.2,3.2-3.8,4.1c-2.3,1.2-4.8,0.5-6.3-1.9c-0.8-1.3-1.3-2.8-2-4.2
					c-10.2-21.8-26.8-36.2-50-42.6c-5.6-1.5-7.7-3.7-6.7-7.4c0.9-3.7,3.8-4.8,9.4-3.2c27.6,7.8,47.1,24.8,58.3,51.3
					C-1005.4,222.2-1005.2,223.3-1004.7,225.2z"/>
				<path d="M-1235.4,237.4c7.1-13.2,18.1-21.8,33.4-24.5c1.9-0.3,4.6-0.2,6,0.9c1.3,1.1,2.2,4,1.7,5.6c-0.5,1.6-2.8,3-4.6,3.8
					c-4.9,2.1-10.2,3.4-14.9,5.9c-5.7,3.1-9.4,8.3-12.3,14.1c-2.1,4-6.4,4.8-9.1,1.9C-1237.3,242.8-1236.8,240.3-1235.4,237.4z"/>
			</g>
		</g>
	</g>
</g>
<g id="sun">
	<g>
		<path class="st0" d="M-1821.6-535.2c0-71.7,57.8-129.9,129.1-129.9s129.1,58.1,129.1,129.9s-49.7,129.9-121,129.9
			S-1821.6-463.5-1821.6-535.2z"/>
		<path class="st0" d="M-1949.9-276.6c0.3,0.3,0.6,0.6,1,1C-1949.7-275.4-1950.1-275.7-1949.9-276.6z"/>
		<path class="st1" d="M-1692.5-377.8c-86.9,0-157.2-69.9-157.4-157.3c-0.2-87.5,71.2-157.7,157.8-157.6
			c87.3,0.1,157.3,70.8,157.2,159.2C-1535-448.1-1606.1-377.8-1692.5-377.8z M-1820.2-535.6c-0.2,69.4,55.3,127.9,127.3,128.2
			c70.9,0.3,128.3-56.3,128.3-127.6c0.1-72-57.5-127.2-125.5-127.9C-1762.3-663.6-1820.2-606.5-1820.2-535.6z"/>
		<path class="st2" d="M-1701.3-321.8c0-7-0.1-14,0-20.9c0.1-9.5,6.1-15.9,14.7-16c8.6-0.1,15,6.2,15.1,15.6
			c0.2,14.3,0.2,28.6,0,42.8c-0.1,9.2-6.7,15.9-15,15.8c-8.6-0.1-14.8-6.9-14.9-16.4C-1701.4-307.8-1701.3-314.8-1701.3-321.8z"/>
		<path class="st2" d="M-1701.3-746.2c0-7-0.1-14,0-20.9c0.1-9.2,6.4-15.9,14.8-16c8.1-0.1,14.8,6.4,15,15.3
			c0.3,14.6,0.3,29.2,0,43.8c-0.2,9.4-6.7,15.3-15.6,15c-8.4-0.2-14.1-6.6-14.2-15.9C-1701.4-731.9-1701.3-739.1-1701.3-746.2z"/>
		<path class="st2" d="M-1545.3-693.1c4.7-5.1,9.4-10.3,14.2-15.4c6.3-6.7,15.5-7.4,21.7-1.7c6,5.5,6.6,14.8,0.7,21.4
			c-9.7,10.9-19.5,21.7-29.6,32.3c-6.5,6.8-15.3,6.7-21.6,0.6c-6-5.8-6-14.4,0.2-21.3C-1555-682.6-1550.1-687.8-1545.3-693.1z"/>
		<path class="st2" d="M-1812.4-670.8c0,6.9-2.4,11.3-7.2,14.2c-5,3-10.2,2.9-15.2-0.1c-1.2-0.7-2.4-1.7-3.4-2.7
			c-10.1-10.1-20.4-20-30.3-30.3c-8.9-9.2-5.3-22.7,6.6-25.6c5.1-1.3,9.7,0.1,13.4,3.7c10.8,10.6,21.4,21.3,32,32
			C-1813.8-676.9-1812.4-673.5-1812.4-670.8z"/>
		<path class="st2" d="M-1512.4-369.2c-0.1,11.1-11.5,18.1-21.4,13c-1.6-0.8-3.1-1.8-4.3-3.1c-10.3-10.2-20.5-20.3-30.6-30.7
			c-5.6-5.7-6.3-13.6-2.1-19.6c3.8-5.5,11.4-7.7,17.8-5.2c2.2,0.8,3.9,2.3,5.5,3.9c10.1,10.1,20.2,20.2,30.3,30.3
			C-1514.1-377.4-1512.2-373.8-1512.4-369.2z"/>
		<path class="st2" d="M-1812.4-401.2c0.1,4.1-1.3,7.6-4.2,10.5c-10.7,10.7-21.3,21.4-32.1,32c-5.6,5.5-14.1,5.5-19.8,0.4
			c-5.9-5.3-7.3-14.3-1.8-20c11.1-11.8,22.6-23.3,34.4-34.4c4.3-4.1,10-4.2,15.4-1.4C-1815.2-411.4-1812.7-407-1812.4-401.2z"/>
		<path class="st2" d="M-1908.9-515.2c-7.1,0-14.3,0-21.4,0c-8.9-0.1-15.5-6.2-15.7-14.5c-0.2-8.1,5.9-14.8,14.6-14.9
			c15.1-0.3,30.2-0.3,45.3,0c9,0.2,14.6,6.7,14.3,15.6c-0.3,8-6.5,13.8-15.1,13.8C-1894.3-515.2-1901.6-515.2-1908.9-515.2z"/>
		<path class="st2" d="M-1484.4-515.2c-7.3,0-14.6,0.1-21.9,0c-8.8-0.1-15-6-15.2-14.3c-0.2-8.5,5.5-14.9,14.3-15.1
			c15.2-0.3,30.5-0.2,45.7,0.1c8.3,0.2,14.4,6.9,14.2,14.9c-0.2,8.1-6.7,14.4-15.2,14.5C-1469.7-515.2-1477.1-515.2-1484.4-515.2z"
			/>
		<path class="st1" d="M-1710.9-635.4c1.2,0,3.3-0.2,5.4,0c3.9,0.5,6.1,2.9,6.2,6.9c0.1,3.9-1.7,6.4-5.6,7.4
			c-4.6,1.1-9.3,0.6-14,1.5c-20.2,3.9-35.8,14.4-47.2,31.3c-0.5,0.8-1,1.7-1.6,2.4c-2.8,3.6-6.8,4.5-10.2,2.4
			c-3.6-2.2-4.6-6.5-2.1-10.6c8-13.2,18.8-23.5,32.3-30.9C-1736.6-631.2-1724.6-634.7-1710.9-635.4z"/>
		<path class="st2" d="M-1708-661"/>
	</g>
	<g>
		<path class="st0" d="M155.2,163.8c0-45.4,36.6-82.1,81.7-82.1s81.7,36.8,81.7,82.1s-31.4,82.1-76.5,82.1S155.2,209.1,155.2,163.8z
			"/>
		<path class="st0" d="M74.1,327.4c0.2,0.2,0.4,0.4,0.6,0.6C74.2,328.1,74,327.9,74.1,327.4z"/>
		<path class="st1" d="M236.9,263.4c-55,0-99.4-44.2-99.5-99.5c-0.1-55.3,45-99.7,99.8-99.7c55.2,0.1,99.5,44.8,99.4,100.7
			C336.5,218.9,291.5,263.4,236.9,263.4z M156.1,163.6c-0.1,43.9,35,80.9,80.5,81.1c44.8,0.2,81.1-35.6,81.1-80.7
			c0-45.5-36.3-80.4-79.4-80.9C192.7,82.6,156.1,118.7,156.1,163.6z"/>
		<path class="st2" d="M231.3,298.8c0-4.4,0-8.8,0-13.2c0.1-6,3.9-10,9.3-10.1c5.4-0.1,9.5,3.9,9.6,9.9c0.1,9,0.1,18.1,0,27.1
			c-0.1,5.8-4.2,10.1-9.5,10c-5.4,0-9.4-4.4-9.4-10.4C231.2,307.6,231.3,303.2,231.3,298.8z"/>
		<path class="st2" d="M231.3,30.3c0-4.4,0-8.8,0-13.2c0.1-5.8,4.1-10.1,9.4-10.1c5.1,0,9.4,4.1,9.5,9.7c0.2,9.2,0.2,18.5,0,27.7
			c-0.1,5.9-4.2,9.7-9.8,9.5c-5.3-0.1-8.9-4.2-9-10C231.2,39.4,231.3,34.9,231.3,30.3z"/>
		<path class="st2" d="M329.9,64c3-3.3,5.9-6.5,9-9.7c4-4.2,9.8-4.7,13.7-1.1c3.8,3.5,4.2,9.3,0.4,13.6
			c-6.1,6.9-12.3,13.7-18.7,20.4c-4.1,4.3-9.7,4.3-13.7,0.4c-3.8-3.7-3.8-9.1,0.1-13.5C323.8,70.6,326.9,67.3,329.9,64z"/>
		<path class="st2" d="M161,78c0,4.4-1.5,7.1-4.6,8.9c-3.2,1.9-6.4,1.8-9.6-0.1c-0.8-0.5-1.5-1.1-2.2-1.7
			c-6.4-6.4-12.9-12.7-19.1-19.2c-5.6-5.8-3.3-14.3,4.1-16.2c3.2-0.8,6.2,0.1,8.5,2.4c6.8,6.7,13.5,13.5,20.3,20.2
			C160.2,74.2,161,76.3,161,78z"/>
		<path class="st2" d="M350.7,268.8c0,7-7.2,11.4-13.5,8.2c-1-0.5-2-1.2-2.7-1.9c-6.5-6.4-13-12.9-19.4-19.4
			c-3.5-3.6-4-8.6-1.3-12.4c2.4-3.5,7.2-4.9,11.2-3.3c1.4,0.5,2.5,1.5,3.5,2.5c6.4,6.4,12.8,12.8,19.2,19.2
			C349.6,263.6,350.9,265.9,350.7,268.8z"/>
		<path class="st2" d="M161,248.6c0.1,2.6-0.8,4.8-2.6,6.7c-6.8,6.7-13.5,13.5-20.3,20.2c-3.5,3.5-8.9,3.5-12.5,0.3
			c-3.8-3.4-4.6-9-1.1-12.7c7-7.5,14.3-14.7,21.8-21.8c2.7-2.6,6.3-2.7,9.8-0.9C159.3,242.1,160.9,244.9,161,248.6z"/>
		<path class="st2" d="M100,176.4c-4.5,0-9,0-13.5,0c-5.6,0-9.8-3.9-9.9-9.2c-0.1-5.1,3.8-9.3,9.2-9.4c9.5-0.2,19.1-0.2,28.6,0
			c5.7,0.1,9.2,4.2,9,9.8c-0.2,5.1-4.1,8.7-9.6,8.8C109.3,176.5,104.6,176.4,100,176.4z"/>
		<path class="st2" d="M368.5,176.4c-4.6,0-9.2,0-13.9,0c-5.6-0.1-9.5-3.8-9.6-9c-0.1-5.4,3.5-9.4,9-9.5c9.6-0.2,19.3-0.2,28.9,0
			c5.3,0.1,9.1,4.4,9,9.4c-0.1,5.1-4.3,9.1-9.6,9.2C377.7,176.5,373.1,176.4,368.5,176.4z"/>
		<path class="st1" d="M225.2,100.4c0.8,0,2.1-0.1,3.4,0c2.5,0.3,3.9,1.8,3.9,4.3c0.1,2.5-1.1,4.1-3.6,4.7c-2.9,0.7-5.9,0.4-8.8,0.9
			c-12.7,2.4-22.6,9.1-29.8,19.8c-0.3,0.5-0.6,1.1-1,1.5c-1.8,2.3-4.3,2.9-6.5,1.5c-2.3-1.4-2.9-4.1-1.3-6.7
			c5-8.3,11.9-14.8,20.4-19.5C209,103.1,216.6,100.9,225.2,100.4z"/>
		<path class="st2" d="M227,84.2"/>
	</g>
</g>
<g id="rainy_cloud">
	<g>
		<g>
			<g>
				<path class="st0" d="M-386.9,368.7c-35.1,0-70.1,0.1-105.2,0c-25.1-0.1-46.7-8.9-63.9-27.4c-17.8-19.1-25.6-42-22.6-68.1
					c4-35.6,28.2-63.8,62.4-73.4c9.4-2.6,18.9-3.9,28.7-2.7c2.1,0.2,3.2-0.5,4.4-2.1c18.8-24.9,43.7-39.7,74.6-43.5
					c52-6.3,101.5,25.2,117.1,76.3c1,3.3,2.4,4.1,5.7,3.8c36.4-3.2,68.9,23.4,73.4,59.7c5.1,41.2-26.7,77.3-68.3,77.4
					C-316,368.8-351.5,368.7-386.9,368.7z"/>
			</g>
			<g>
				<path d="M-386.9,368.7c-35.1,0-70.1,0.1-105.2,0c-25.1-0.1-46.7-8.9-63.9-27.4c-17.8-19.1-25.6-42-22.6-68.1
					c4-35.6,28.2-63.8,62.4-73.4c9.4-2.6,18.9-3.9,28.7-2.7c2.1,0.2,3.2-0.5,4.4-2.1c18.8-24.9,43.7-39.7,74.6-43.5
					c52-6.3,101.5,25.2,117.1,76.3c1,3.3,2.4,4.1,5.7,3.8c36.4-3.2,68.9,23.4,73.4,59.7c5.1,41.2-26.7,77.3-68.3,77.4
					C-316,368.8-351.5,368.7-386.9,368.7z M-387.2,357.8c34.1,0,68.2,0,102.3,0c3.6,0,7.2-0.2,10.7-0.5
					c33.2-3.1,57.4-35.8,50.6-68.4c-6.7-31.7-35.1-51.1-67.2-45.9c-6.2,1-7.7,0-9.3-6.3c-13.3-54.3-68.3-86.7-121.9-71.7
					c-22.6,6.4-40.8,19.5-54.2,38.9c-2.2,3.2-4.6,4.6-8.7,4.1c-8.9-1.2-17.9-0.6-26.6,1.6c-37.1,9.3-60.9,45.1-56.4,81.4
					c2.2,17.4,9.2,32.3,21.6,44.6c15.4,15.3,34.1,22.2,55.7,22.1C-456.1,357.8-421.6,357.8-387.2,357.8z"/>
				<path d="M-314.5,231.7c-1.1,1.2-2.2,3.2-3.8,4.1c-2.3,1.2-4.8,0.5-6.3-1.9c-0.8-1.3-1.3-2.8-2-4.2c-10.2-21.8-26.8-36.2-50-42.6
					c-5.6-1.5-7.7-3.7-6.7-7.4c0.9-3.7,3.8-4.8,9.4-3.2c27.6,7.8,47.1,24.8,58.3,51.3C-315.3,228.7-315.1,229.8-314.5,231.7z"/>
				<path d="M-545.2,243.9c7.1-13.2,18.1-21.8,33.4-24.5c1.9-0.3,4.6-0.2,6,0.9c1.3,1.1,2.2,4,1.7,5.6c-0.5,1.6-2.8,3-4.6,3.8
					c-4.9,2.1-10.2,3.4-14.9,5.9c-5.7,3.1-9.4,8.3-12.3,14.1c-2.1,4-6.4,4.8-9.1,1.9C-547.1,249.3-546.6,246.8-545.2,243.9z"/>
			</g>
		</g>
		<path class="st3" d="M-444.3,413.4c-0.1,8.5-8.8,13.9-16.4,10c-1.2-0.6-2.4-1.4-3.3-2.4c-7.9-7.8-15.8-15.6-23.5-23.5
			c-4.3-4.4-4.8-10.4-1.6-15c2.9-4.2,8.7-5.9,13.6-4c1.7,0.7,3,1.8,4.2,3c7.8,7.8,15.5,15.5,23.3,23.3
			C-445.6,407.2-444.1,409.9-444.3,413.4z"/>
		<path class="st3" d="M-395.4,413.4c-0.1,8.5-8.8,13.9-16.4,10c-1.2-0.6-2.4-1.4-3.3-2.4c-7.9-7.8-15.8-15.6-23.5-23.5
			c-4.3-4.4-4.8-10.4-1.6-15c2.9-4.2,8.7-5.9,13.6-4c1.7,0.7,3,1.8,4.2,3c7.8,7.8,15.5,15.5,23.3,23.3
			C-396.8,407.2-395.3,409.9-395.4,413.4z"/>
		<path class="st3" d="M-332.3,413.4c-0.1,8.5-8.8,13.9-16.4,10c-1.2-0.6-2.4-1.4-3.3-2.4c-7.9-7.8-15.8-15.6-23.5-23.5
			c-4.3-4.4-4.8-10.4-1.6-15c2.9-4.2,8.7-5.9,13.6-4c1.7,0.7,3,1.8,4.2,3c7.8,7.8,15.5,15.5,23.3,23.3
			C-333.6,407.2-332.1,409.9-332.3,413.4z"/>
		<path class="st3" d="M-274.3,413.4c-0.1,8.5-8.8,13.9-16.4,10c-1.2-0.6-2.4-1.4-3.3-2.4c-7.9-7.8-15.8-15.6-23.5-23.5
			c-4.3-4.4-4.8-10.4-1.6-15c2.9-4.2,8.7-5.9,13.6-4c1.7,0.7,3,1.8,4.2,3c7.8,7.8,15.5,15.5,23.3,23.3
			C-275.6,407.2-274.1,409.9-274.3,413.4z"/>
		<path class="st3" d="M-280.3,464.7c-0.1,8.5-8.8,13.9-16.4,10c-1.2-0.6-2.4-1.4-3.3-2.4c-7.9-7.8-15.8-15.6-23.5-23.5
			c-4.3-4.4-4.8-10.4-1.6-15c2.9-4.2,8.7-5.9,13.6-4c1.7,0.7,3,1.8,4.2,3c7.8,7.8,15.5,15.5,23.3,23.3
			C-281.6,458.5-280.1,461.2-280.3,464.7z"/>
		<path class="st3" d="M-337.6,464.7c-0.1,8.5-8.8,13.9-16.4,10c-1.2-0.6-2.4-1.4-3.3-2.4c-7.9-7.8-15.8-15.6-23.5-23.5
			c-4.3-4.4-4.8-10.4-1.6-15c2.9-4.2,8.7-5.9,13.6-4c1.7,0.7,3,1.8,4.2,3c7.8,7.8,15.5,15.5,23.3,23.3
			C-339,458.5-337.5,461.2-337.6,464.7z"/>
		<path class="st3" d="M-391,464.7c-0.1,8.5-8.8,13.9-16.4,10c-1.2-0.6-2.4-1.4-3.3-2.4c-7.9-7.8-15.8-15.6-23.5-23.5
			c-4.3-4.4-4.8-10.4-1.6-15c2.9-4.2,8.7-5.9,13.6-4c1.7,0.7,3,1.8,4.2,3c7.8,7.8,15.5,15.5,23.3,23.3
			C-392.3,458.5-390.8,461.2-391,464.7z"/>
	</g>
	<g>
		<g>
			<g>
				<path class="st0" d="M195.2,335c-35.1,0-70.1,0.1-105.2,0c-25.1-0.1-46.7-8.9-63.9-27.4c-17.8-19.1-25.6-42-22.6-68.1
					c4-35.6,28.2-63.8,62.4-73.4c9.4-2.6,18.9-3.9,28.7-2.7c2.1,0.2,3.2-0.5,4.4-2.1c18.8-24.9,43.7-39.7,74.6-43.5
					c52-6.3,101.5,25.2,117.1,76.3c1,3.3,2.4,4.1,5.7,3.8c36.4-3.2,68.9,23.4,73.4,59.7c5.1,41.2-26.7,77.3-68.3,77.4
					C266,335.1,230.6,335,195.2,335z"/>
			</g>
			<g>
				<path d="M195.2,335c-35.1,0-70.1,0.1-105.2,0c-25.1-0.1-46.7-8.9-63.9-27.4c-17.8-19.1-25.6-42-22.6-68.1
					c4-35.6,28.2-63.8,62.4-73.4c9.4-2.6,18.9-3.9,28.7-2.7c2.1,0.2,3.2-0.5,4.4-2.1c18.8-24.9,43.7-39.7,74.6-43.5
					c52-6.3,101.5,25.2,117.1,76.3c1,3.3,2.4,4.1,5.7,3.8c36.4-3.2,68.9,23.4,73.4,59.7c5.1,41.2-26.7,77.3-68.3,77.4
					C266,335.1,230.6,335,195.2,335z M194.9,324.2c34.1,0,68.2,0,102.3,0c3.6,0,7.2-0.2,10.7-0.5c33.2-3.1,57.4-35.8,50.6-68.4
					c-6.7-31.7-35.1-51.1-67.2-45.9c-6.2,1-7.7,0-9.3-6.3c-13.3-54.3-68.3-86.7-121.9-71.7c-22.6,6.4-40.8,19.5-54.2,38.9
					c-2.2,3.2-4.6,4.6-8.7,4.1c-8.9-1.2-17.9-0.6-26.6,1.6c-37.1,9.3-60.9,45.1-56.4,81.4c2.2,17.4,9.2,32.3,21.6,44.6
					c15.4,15.3,34.1,22.2,55.7,22.1C126,324.1,160.4,324.2,194.9,324.2z"/>
				<path d="M267.5,198c-1.1,1.2-2.2,3.2-3.8,4.1c-2.3,1.2-4.8,0.5-6.3-1.9c-0.8-1.3-1.3-2.8-2-4.2c-10.2-21.8-26.8-36.2-50-42.6
					c-5.6-1.5-7.7-3.7-6.7-7.4c0.9-3.7,3.8-4.8,9.4-3.2c27.6,7.8,47.1,24.8,58.3,51.3C266.8,195,267,196.1,267.5,198z"/>
				<path d="M36.8,210.2c7.1-13.2,18.1-21.8,33.4-24.5c1.9-0.3,4.6-0.2,6,0.9c1.3,1.1,2.2,4,1.7,5.6c-0.5,1.6-2.8,3-4.6,3.8
					c-4.9,2.1-10.2,3.4-14.9,5.9c-5.7,3.1-9.4,8.3-12.3,14.1c-2.1,4-6.4,4.8-9.1,1.9C34.9,215.6,35.4,213.1,36.8,210.2z"/>
			</g>
		</g>
		<path class="st3" d="M137.8,379.7c-0.1,8.5-8.8,13.9-16.4,10c-1.2-0.6-2.4-1.4-3.3-2.4c-7.9-7.8-15.8-15.6-23.5-23.5
			c-4.3-4.4-4.8-10.4-1.6-15c2.9-4.2,8.7-5.9,13.6-4c1.7,0.7,3,1.8,4.2,3c7.8,7.8,15.5,15.5,23.3,23.3
			C136.4,373.5,137.9,376.2,137.8,379.7z"/>
		<path class="st3" d="M186.6,379.7c-0.1,8.5-8.8,13.9-16.4,10c-1.2-0.6-2.4-1.4-3.3-2.4c-7.9-7.8-15.8-15.6-23.5-23.5
			c-4.3-4.4-4.8-10.4-1.6-15c2.9-4.2,8.7-5.9,13.6-4c1.7,0.7,3,1.8,4.2,3c7.8,7.8,15.5,15.5,23.3,23.3
			C185.3,373.5,186.8,376.2,186.6,379.7z"/>
		<path class="st3" d="M249.8,379.7c-0.1,8.5-8.8,13.9-16.4,10c-1.2-0.6-2.4-1.4-3.3-2.4c-7.9-7.8-15.8-15.6-23.5-23.5
			c-4.3-4.4-4.8-10.4-1.6-15c2.9-4.2,8.7-5.9,13.6-4c1.7,0.7,3,1.8,4.2,3c7.8,7.8,15.5,15.5,23.3,23.3
			C248.4,373.5,249.9,376.2,249.8,379.7z"/>
		<path class="st3" d="M307.8,379.7c-0.1,8.5-8.8,13.9-16.4,10c-1.2-0.6-2.4-1.4-3.3-2.4c-7.9-7.8-15.8-15.6-23.5-23.5
			c-4.3-4.4-4.8-10.4-1.6-15c2.9-4.2,8.7-5.9,13.6-4c1.7,0.7,3,1.8,4.2,3c7.8,7.8,15.5,15.5,23.3,23.3
			C306.4,373.5,307.9,376.2,307.8,379.7z"/>
		<path class="st3" d="M301.8,431c-0.1,8.5-8.8,13.9-16.4,10c-1.2-0.6-2.4-1.4-3.3-2.4c-7.9-7.8-15.8-15.6-23.5-23.5
			c-4.3-4.4-4.8-10.4-1.6-15c2.9-4.2,8.7-5.9,13.6-4c1.7,0.7,3,1.8,4.2,3c7.8,7.8,15.5,15.5,23.3,23.3
			C300.4,424.8,301.9,427.6,301.8,431z"/>
		<path class="st3" d="M244.4,431c-0.1,8.5-8.8,13.9-16.4,10c-1.2-0.6-2.4-1.4-3.3-2.4c-7.9-7.8-15.8-15.6-23.5-23.5
			c-4.3-4.4-4.8-10.4-1.6-15c2.9-4.2,8.7-5.9,13.6-4c1.7,0.7,3,1.8,4.2,3c7.8,7.8,15.5,15.5,23.3,23.3
			C243.1,424.8,244.6,427.6,244.4,431z"/>
		<path class="st3" d="M191.1,431c-0.1,8.5-8.8,13.9-16.4,10c-1.2-0.6-2.4-1.4-3.3-2.4c-7.9-7.8-15.8-15.6-23.5-23.5
			c-4.3-4.4-4.8-10.4-1.6-15c2.9-4.2,8.7-5.9,13.6-4c1.7,0.7,3,1.8,4.2,3c7.8,7.8,15.5,15.5,23.3,23.3
			C189.8,424.8,191.3,427.6,191.1,431z"/>
	</g>
</g>
</svg>
