<?xml version="1.0" encoding="utf-8"?>
<!-- Generator: Adobe Illustrator 19.1.0, SVG Export Plug-In . SVG Version: 6.00 Build 0)  -->
<svg version="1.1" xmlns="http://www.w3.org/2000/svg" xmlns:xlink="http://www.w3.org/1999/xlink" x="0px" y="0px"
	 viewBox="0 0 401.3 442.3" style="enable-background:new 0 0 401.3 442.3;" xml:space="preserve">
<style type="text/css">
	.st0{fill:#FFFFFF;}
	.st1{fill:#DCE11F;}
	.st2{fill:#FFFFFF;stroke:#DCE125;stroke-width:13;stroke-miterlimit:10;}
	.st3{fill:#365BA9;}
</style>
<g id="Layer_1">
</g>
<g id="overcast">
</g>
<g id="sun">
	<g>
		<path class="st0" d="M155.2,163.8c0-45.4,36.6-82.1,81.7-82.1s81.7,36.8,81.7,82.1s-31.4,82.1-76.5,82.1S155.2,209.1,155.2,163.8z
			"/>
		<path class="st0" d="M74.1,327.4c0.2,0.2,0.4,0.4,0.6,0.6C74.2,328.1,74,327.9,74.1,327.4z"/>
		<path class="st1" d="M236.9,263.4c-55,0-99.4-44.2-99.5-99.5c-0.1-55.3,45-99.7,99.8-99.7c55.2,0.1,99.5,44.8,99.4,100.7
			C336.5,218.9,291.5,263.4,236.9,263.4z M156.1,163.6c-0.1,43.9,35,80.9,80.5,81.1c44.8,0.2,81.1-35.6,81.1-80.7
			c0-45.5-36.3-80.4-79.4-80.9C192.7,82.6,156.1,118.7,156.1,163.6z"/>
		<path class="st2" d="M231.3,298.8c0-4.4,0-8.8,0-13.2c0.1-6,3.9-10,9.3-10.1c5.4-0.1,9.5,3.9,9.6,9.9c0.1,9,0.1,18.1,0,27.1
			c-0.1,5.8-4.2,10.1-9.5,10c-5.4,0-9.4-4.4-9.4-10.4C231.2,307.6,231.3,303.2,231.3,298.8z"/>
		<path class="st2" d="M231.3,30.3c0-4.4,0-8.8,0-13.2c0.1-5.8,4.1-10.1,9.4-10.1c5.1,0,9.4,4.1,9.5,9.7c0.2,9.2,0.2,18.5,0,27.7
			c-0.1,5.9-4.2,9.7-9.8,9.5c-5.3-0.1-8.9-4.2-9-10C231.2,39.4,231.3,34.9,231.3,30.3z"/>
		<path class="st2" d="M329.9,64c3-3.3,5.9-6.5,9-9.7c4-4.2,9.8-4.7,13.7-1.1c3.8,3.5,4.2,9.3,0.4,13.6
			c-6.1,6.9-12.3,13.7-18.7,20.4c-4.1,4.3-9.7,4.3-13.7,0.4c-3.8-3.7-3.8-9.1,0.1-13.5C323.8,70.6,326.9,67.3,329.9,64z"/>
		<path class="st2" d="M161,78c0,4.4-1.5,7.1-4.6,8.9c-3.2,1.9-6.4,1.8-9.6-0.1c-0.8-0.5-1.5-1.1-2.2-1.7
			c-6.4-6.4-12.9-12.7-19.1-19.2c-5.6-5.8-3.3-14.3,4.1-16.2c3.2-0.8,6.2,0.1,8.5,2.4c6.8,6.7,13.5,13.5,20.3,20.2
			C160.2,74.2,161,76.3,161,78z"/>
		<path class="st2" d="M350.7,268.8c0,7-7.2,11.4-13.5,8.2c-1-0.5-2-1.2-2.7-1.9c-6.5-6.4-13-12.9-19.4-19.4
			c-3.5-3.6-4-8.6-1.3-12.4c2.4-3.5,7.2-4.9,11.2-3.3c1.4,0.5,2.5,1.5,3.5,2.5c6.4,6.4,12.8,12.8,19.2,19.2
			C349.6,263.6,350.9,265.9,350.7,268.8z"/>
		<path class="st2" d="M161,248.6c0.1,2.6-0.8,4.8-2.6,6.7c-6.8,6.7-13.5,13.5-20.3,20.2c-3.5,3.5-8.9,3.5-12.5,0.3
			c-3.8-3.4-4.6-9-1.1-12.7c7-7.5,14.3-14.7,21.8-21.8c2.7-2.6,6.3-2.7,9.8-0.9C159.3,242.1,160.9,244.9,161,248.6z"/>
		<path class="st2" d="M100,176.4c-4.5,0-9,0-13.5,0c-5.6,0-9.8-3.9-9.9-9.2c-0.1-5.1,3.8-9.3,9.2-9.4c9.5-0.2,19.1-0.2,28.6,0
			c5.7,0.1,9.2,4.2,9,9.8c-0.2,5.1-4.1,8.7-9.6,8.8C109.3,176.5,104.6,176.4,100,176.4z"/>
		<path class="st2" d="M368.5,176.4c-4.6,0-9.2,0-13.9,0c-5.6-0.1-9.5-3.8-9.6-9c-0.1-5.4,3.5-9.4,9-9.5c9.6-0.2,19.3-0.2,28.9,0
			c5.3,0.1,9.1,4.4,9,9.4c-0.1,5.1-4.3,9.1-9.6,9.2C377.7,176.5,373.1,176.4,368.5,176.4z"/>
		<path class="st1" d="M225.2,100.4c0.8,0,2.1-0.1,3.4,0c2.5,0.3,3.9,1.8,3.9,4.3c0.1,2.5-1.1,4.1-3.6,4.7c-2.9,0.7-5.9,0.4-8.8,0.9
			c-12.7,2.4-22.6,9.1-29.8,19.8c-0.3,0.5-0.6,1.1-1,1.5c-1.8,2.3-4.3,2.9-6.5,1.5c-2.3-1.4-2.9-4.1-1.3-6.7
			c5-8.3,11.9-14.8,20.4-19.5C209,103.1,216.6,100.9,225.2,100.4z"/>
	</g>
</g>
<g id="rainy_cloud">
	<g>
		<g>
			<g>
				<path class="st0" d="M195.2,335c-35.1,0-70.1,0.1-105.2,0c-25.1-0.1-46.7-8.9-63.9-27.4c-17.8-19.1-25.6-42-22.6-68.1
					c4-35.6,28.2-63.8,62.4-73.4c9.4-2.6,18.9-3.9,28.7-2.7c2.1,0.2,3.2-0.5,4.4-2.1c18.8-24.9,43.7-39.7,74.6-43.5
					c52-6.3,101.5,25.2,117.1,76.3c1,3.3,2.4,4.1,5.7,3.8c36.4-3.2,68.9,23.4,73.4,59.7c5.1,41.2-26.7,77.3-68.3,77.4
					C266,335.1,230.6,335,195.2,335z"/>
			</g>
			<g>
				<path d="M195.2,335c-35.1,0-70.1,0.1-105.2,0c-25.1-0.1-46.7-8.9-63.9-27.4c-17.8-19.1-25.6-42-22.6-68.1
					c4-35.6,28.2-63.8,62.4-73.4c9.4-2.6,18.9-3.9,28.7-2.7c2.1,0.2,3.2-0.5,4.4-2.1c18.8-24.9,43.7-39.7,74.6-43.5
					c52-6.3,101.5,25.2,117.1,76.3c1,3.3,2.4,4.1,5.7,3.8c36.4-3.2,68.9,23.4,73.4,59.7c5.1,41.2-26.7,77.3-68.3,77.4
					C266,335.1,230.6,335,195.2,335z M194.9,324.2c34.1,0,68.2,0,102.3,0c3.6,0,7.2-0.2,10.7-0.5c33.2-3.1,57.4-35.8,50.6-68.4
					c-6.7-31.7-35.1-51.1-67.2-45.9c-6.2,1-7.7,0-9.3-6.3c-13.3-54.3-68.3-86.7-121.9-71.7c-22.6,6.4-40.8,19.5-54.2,38.9
					c-2.2,3.2-4.6,4.6-8.7,4.1c-8.9-1.2-17.9-0.6-26.6,1.6c-37.1,9.3-60.9,45.1-56.4,81.4c2.2,17.4,9.2,32.3,21.6,44.6
					c15.4,15.3,34.1,22.2,55.7,22.1C126,324.1,160.4,324.2,194.9,324.2z"/>
				<path d="M267.5,198c-1.1,1.2-2.2,3.2-3.8,4.1c-2.3,1.2-4.8,0.5-6.3-1.9c-0.8-1.3-1.3-2.8-2-4.2c-10.2-21.8-26.8-36.2-50-42.6
					c-5.6-1.5-7.7-3.7-6.7-7.4c0.9-3.7,3.8-4.8,9.4-3.2c27.6,7.8,47.1,24.8,58.3,51.3C266.8,195,267,196.1,267.5,198z"/>
				<path d="M36.8,210.2c7.1-13.2,18.1-21.8,33.4-24.5c1.9-0.3,4.6-0.2,6,0.9c1.3,1.1,2.2,4,1.7,5.6c-0.5,1.6-2.8,3-4.6,3.8
					c-4.9,2.1-10.2,3.4-14.9,5.9c-5.7,3.1-9.4,8.3-12.3,14.1c-2.1,4-6.4,4.8-9.1,1.9C34.9,215.6,35.4,213.1,36.8,210.2z"/>
			</g>
		</g>
		<path class="st3" d="M137.8,379.7c-0.1,8.5-8.8,13.9-16.4,10c-1.2-0.6-2.4-1.4-3.3-2.4c-7.9-7.8-15.8-15.6-23.5-23.5
			c-4.3-4.4-4.8-10.4-1.6-15c2.9-4.2,8.7-5.9,13.6-4c1.7,0.7,3,1.8,4.2,3c7.8,7.8,15.5,15.5,23.3,23.3
			C136.4,373.5,137.9,376.2,137.8,379.7z"/>
		<path class="st3" d="M186.6,379.7c-0.1,8.5-8.8,13.9-16.4,10c-1.2-0.6-2.4-1.4-3.3-2.4c-7.9-7.8-15.8-15.6-23.5-23.5
			c-4.3-4.4-4.8-10.4-1.6-15c2.9-4.2,8.7-5.9,13.6-4c1.7,0.7,3,1.8,4.2,3c7.8,7.8,15.5,15.5,23.3,23.3
			C185.3,373.5,186.8,376.2,186.6,379.7z"/>
		<path class="st3" d="M249.8,379.7c-0.1,8.5-8.8,13.9-16.4,10c-1.2-0.6-2.4-1.4-3.3-2.4c-7.9-7.8-15.8-15.6-23.5-23.5
			c-4.3-4.4-4.8-10.4-1.6-15c2.9-4.2,8.7-5.9,13.6-4c1.7,0.7,3,1.8,4.2,3c7.8,7.8,15.5,15.5,23.3,23.3
			C248.4,373.5,249.9,376.2,249.8,379.7z"/>
		<path class="st3" d="M307.8,379.7c-0.1,8.5-8.8,13.9-16.4,10c-1.2-0.6-2.4-1.4-3.3-2.4c-7.9-7.8-15.8-15.6-23.5-23.5
			c-4.3-4.4-4.8-10.4-1.6-15c2.9-4.2,8.7-5.9,13.6-4c1.7,0.7,3,1.8,4.2,3c7.8,7.8,15.5,15.5,23.3,23.3
			C306.4,373.5,307.9,376.2,307.8,379.7z"/>
		<path class="st3" d="M301.8,431c-0.1,8.5-8.8,13.9-16.4,10c-1.2-0.6-2.4-1.4-3.3-2.4c-7.9-7.8-15.8-15.6-23.5-23.5
			c-4.3-4.4-4.8-10.4-1.6-15c2.9-4.2,8.7-5.9,13.6-4c1.7,0.7,3,1.8,4.2,3c7.8,7.8,15.5,15.5,23.3,23.3
			C300.4,424.8,301.9,427.6,301.8,431z"/>
		<path class="st3" d="M244.4,431c-0.1,8.5-8.8,13.9-16.4,10c-1.2-0.6-2.4-1.4-3.3-2.4c-7.9-7.8-15.8-15.6-23.5-23.5
			c-4.3-4.4-4.8-10.4-1.6-15c2.9-4.2,8.7-5.9,13.6-4c1.7,0.7,3,1.8,4.2,3c7.8,7.8,15.5,15.5,23.3,23.3
			C243.1,424.8,244.6,427.6,244.4,431z"/>
		<path class="st3" d="M191.1,431c-0.1,8.5-8.8,13.9-16.4,10c-1.2-0.6-2.4-1.4-3.3-2.4c-7.9-7.8-15.8-15.6-23.5-23.5
			c-4.3-4.4-4.8-10.4-1.6-15c2.9-4.2,8.7-5.9,13.6-4c1.7,0.7,3,1.8,4.2,3c7.8,7.8,15.5,15.5,23.3,23.3
			C189.8,424.8,191.3,427.6,191.1,431z"/>
	</g>
</g>
</svg>
